<svg width="339" height="146" viewBox="0 0 339 146" fill="none" xmlns="http://www.w3.org/2000/svg">
<path d="M60.3307 8.03571V8.04004C60.3817 8.36586 59.9449 8.33255 59.712 8.41234C51.5409 11.1985 44.1371 12.2493 37.1678 18.0188C15.6614 35.8171 49.1373 55.8164 63.0669 63.7093C74.2404 70.0418 87.0237 76.1637 99.5786 79.0784C101.506 79.5261 103.9 79.7145 105.712 80.262C106.009 80.3506 106.386 80.3464 106.455 80.7365C91.5472 82.9285 76.3426 79.1161 62.3309 74.3108C62.5859 78.7992 62.8054 83.1967 62.0381 87.6496C58.0734 110.65 28.9258 127.834 8.94929 135.654C6.98468 136.423 4.95787 137.203 2.90234 137.698C17.5216 125.928 31.1077 112.013 37.5537 93.9843C40.6758 85.2558 42.1991 74.3374 39.2544 65.3429C37.8198 60.9609 30.7507 52.7666 28.0011 48.2206C22.431 39.0088 16.7988 24.2248 26.5243 15.7977C35.4382 8.07551 49.1861 8.01576 60.3307 8.03571ZM51.8537 20.9511C58.8185 20.0623 64.8941 26.3283 65.4307 32.9777C66.2356 42.9785 56.2308 51.7158 46.8756 45.9839C36.8109 39.8177 40.1836 22.4405 51.8537 20.9511Z" fill="#1E3673"/>
<path d="M253.173 28.17C256.677 26.4345 261.67 27.2357 263.168 31.2013C264.239 34.0394 262.792 32.9985 260.602 33.3566L260.603 33.355C260.328 29.2161 254.774 28.7581 253.003 32.1624C251.019 35.9765 252.133 43.6345 257.908 42.2438C259.738 41.8024 260.58 40.1453 260.921 38.4298L263.752 38.7795C263.38 41.9973 261.316 44.2258 258.144 44.8138C257.013 45.0236 257.054 44.4574 256.607 45.8547C260.017 45.7099 260.874 49.6438 257.602 50.9346C255.818 51.6391 254.352 51.306 252.621 50.6848C252.704 50.4333 253.06 49.0779 253.129 49.0275C253.367 48.856 255.958 50.2316 256.785 48.9493C257.747 47.4603 255.357 46.9057 254.284 47.1872L255.114 44.8587C247.517 43.9077 247.092 31.1797 253.173 28.17ZM219.286 28.3283C227.522 24.2245 231.714 33.7097 229.001 40.5683C227.175 45.1785 221.234 46.6076 217.913 42.6902V51.0179C216.86 51.0895 215.979 51.2894 214.923 51.0179V27.867H217.747V29.8639L219.286 28.3283ZM198.856 31.4946C199.696 25.6902 211.904 25.84 211.435 32.5337V32.5321C210.935 32.334 208.861 32.8818 208.627 32.6803C208.578 32.6379 208.406 31.7692 208.258 31.4695C206.84 28.5998 200.445 29.9522 201.99 32.9269C203.055 34.9788 210.348 34.0878 211.776 37.9368C212.854 40.8448 211.171 43.6046 208.369 44.5306C204.164 45.9196 198.477 44.5772 198.314 39.3608L201.297 39.2025C201.407 42.367 204.936 42.9667 207.398 42.0574C209.253 41.3728 209.824 39.3042 207.894 38.3332C204.422 36.586 197.976 37.5804 198.856 31.4946ZM271.851 27.4106C279.311 26.3996 282.6 33.3099 280.647 39.7289C278.494 46.8024 267.911 46.8156 265.825 39.5306C264.445 34.7106 266.205 28.1768 271.851 27.4122V27.4106ZM232.691 32.8652C232.231 26.9176 242.281 25.6934 245.069 29.3626C246.938 31.8226 245.488 38.7079 245.99 41.9307C246.147 42.94 246.994 42.6885 247.121 42.88L247.122 42.8784C247.164 42.9435 247.19 44.279 247.154 44.4207C247.051 44.8071 244.46 44.7572 243.94 44.4873C243.307 44.1576 243.334 43.513 243.159 42.935C243.125 42.8184 243.209 42.5603 242.909 42.6919C242.777 42.7502 242.44 43.1666 242.214 43.3281C238.198 46.1862 231.498 45.375 232.03 39.4441C232.498 34.2293 238.452 35.2885 241.829 34.2826C242.291 34.1443 242.877 33.9961 242.985 33.4431C243.863 28.9412 235.576 28.6281 235.498 33.0134L232.691 32.8652ZM195.823 24.7025H183.201V31.5312H194.993V34.3626H183.201V41.6909H196.155V44.5223H179.879V21.8711H195.823V24.7025ZM242.992 36.3612C241.273 36.9924 239.386 36.9808 237.644 37.4105C233.638 38.3998 234.606 42.7517 238.585 42.5219C240.195 42.4286 242.992 40.9347 242.992 39.1093V36.3612ZM272.18 42.3171C280.017 43.6362 279.898 29.2643 272.852 29.9105C266.933 30.4535 267.312 41.4977 272.18 42.3171ZM223.129 42.3438C228.175 41.6393 228.097 29.0213 221.693 29.9105C216.071 30.6917 216.001 43.3397 223.129 42.3438Z" fill="#1E3673"/>
<path d="M298.148 48.5375C300.425 46.9375 301.871 49.2651 301.866 51.4098C301.855 55.5117 292.031 69.0918 289.498 73.5843C287.128 77.7867 282.975 85.5664 284.421 90.4025C285.639 94.4776 290.705 90.1997 292.462 88.8226C293.151 88.2825 295.571 86.372 295.93 85.8185C296.399 85.0932 296.506 83.9171 296.923 83.0177C300.05 76.2668 316.17 66.3847 323.514 65.6438C325.826 65.4095 327.5 66.9673 327.966 69.1766C328.491 71.6672 325.42 71.0603 325.195 72.2342C325.014 73.1782 328.131 75.3252 326.601 78.3267C325.076 81.3195 319.455 85.8655 321.847 89.5813C324.246 93.3082 331.6 86.8117 333.867 85.2584C333.753 86.0908 334.09 87.4144 333.753 88.1553C333.581 88.5325 329.919 92.0563 329.299 92.6277C327.197 94.5671 321.68 99.3697 319.008 99.7424C311.211 100.834 315.705 89.8736 316.799 86.1533C313.808 89.1215 310.927 92.6544 307.76 95.4128C304.52 98.2381 302.527 100.01 299.282 96.0734C297.684 94.1362 296.932 92.2527 296.37 89.8313C296.307 89.5657 296.537 89.4274 296.044 89.4965C292.913 92.6143 287.539 99.4612 283.044 100.153C276.146 101.213 278.505 89.6507 279.301 85.9214C275.766 88.8293 272.901 92.496 269.375 95.4106C266.413 97.8588 264.744 99.8404 261.822 96.0376C260.274 94.0246 259.446 91.5207 258.995 89.048C255.404 92.0675 251.987 96.1203 247.93 98.515C245.908 99.7067 242.951 100.818 241.255 98.5307C239.043 95.5469 242.163 89.4029 242.703 86.1446C240.014 89.1507 237.151 92.5295 234.113 95.1874C233.013 96.1516 230.264 98.3966 228.855 98.4324C225.706 98.515 222.495 91.773 222.171 89.048C219.547 91.5431 216.889 94.5716 213.876 96.598C210.792 98.669 206.507 99.8048 205.047 95.2365C203.103 89.1416 208.886 81.6386 212.684 77.3314C212.715 77.1574 212.488 77.2042 212.349 77.2176C211.426 77.2957 203.93 78.7686 203.588 79.0588C203.385 79.2307 203.181 80.5584 202.976 81.0159C202.49 82.0961 198.049 87.6484 197.176 88.1797C193.971 90.1258 191.233 93.2548 187.986 95.4821C184.165 98.1044 181.096 99.8874 176.358 98.4882C175.265 98.1645 173.276 96.9952 172.35 96.9081C171.739 96.8501 171.29 97.2986 170.645 97.2897C169.868 97.2808 167.097 96.2208 166.742 96.4439C163.916 101.909 162.693 108.877 158.993 113.805C155.75 118.123 153.659 116.407 153.994 111.483C154.505 103.978 161.328 96.7205 165.104 90.4583C168.782 84.359 171.524 77.7219 175.412 71.7521C175.466 71.27 175.341 71.3526 175.077 71.6405C172.687 74.2538 170.533 77.4228 168.166 80.1276C166.452 82.0848 164.347 84.5063 162.475 86.2649C162.187 86.5349 159.779 88.6148 159.571 88.3807C159.205 86.3676 160.091 85.5419 161.241 84.1382C163.756 81.0673 166.702 78.2574 169.281 75.2178C170.069 74.2894 171.042 72.7407 171.837 71.9663C172.138 71.6718 172.609 71.694 172.689 71.5958C172.799 71.4641 172.723 70.9844 172.95 70.634C174.526 68.2193 180.594 59.8568 182.77 58.8035C184.564 57.9353 189.648 57.045 188.334 60.3524C187.296 62.9635 182.087 67.6837 180.141 70.4577C178.141 73.3121 176.7 76.528 174.894 79.4984C174.743 79.7461 174.626 79.9245 174.298 79.9044C174.303 80.4243 175.032 79.8825 175.175 79.7752C179.235 76.7222 185.975 69.8106 191.159 69.6297C196.332 69.449 192.565 77.6615 191.215 79.9692C188.584 84.4661 184.714 88.0838 180.77 91.3957C183.993 93.0382 186.919 91.8174 189.764 90.1235C193.395 87.9655 196.93 84.6492 199.492 81.3128C199.533 80.8575 198.372 80.5093 197.953 80.0138C195.821 77.5031 198.776 72.8077 200.519 70.7478C201.564 69.5114 205.531 65.1975 207.237 66.4918C208.285 67.2863 205.913 69.8081 206.214 70.0805C208.794 69.8484 211.334 69.2055 213.914 68.9689C217.036 68.681 218.571 67.7193 219.661 71.0289C221.238 75.8249 218.996 75.9477 216.364 79.0074C214.807 80.8195 211.473 85.7136 211.548 88.0503C211.624 90.3869 213.885 90.4205 215.634 89.8849C216.585 89.5947 221.35 86.6421 221.953 85.9369C222.452 85.3499 222.383 84.4751 222.684 83.7677C225.813 76.4075 241.583 66.5343 249.456 65.6839C251.36 65.4786 252.19 65.9964 253.264 67.5541C255.408 70.6651 253.737 70.6407 251.273 72.011C251.557 73.5486 253.386 75.5193 253.25 77.0614C253.094 78.8446 249.057 82.7433 248.126 84.6604C246.484 88.0414 247.401 91.6523 251.86 90.4025C253.039 90.0721 258.667 86.4635 258.999 85.4905C259.294 84.6313 259.33 83.6784 259.731 82.6518C261.809 77.3403 271.58 70.6249 276.902 68.8016C279.775 67.8174 283.564 67.1413 284.1 71.0847C284.16 71.3369 284.394 71.2008 284.55 71.0937C285.204 70.6471 288.253 63.8806 288.969 62.5684C290.545 59.6804 295.872 50.1376 298.148 48.5375ZM133.73 48.3769C141.128 46.1295 154.833 44.7659 162.082 47.5958C164.198 48.4215 164.416 49.9637 164.224 52.0928C163.528 59.8435 156.98 59.136 151.463 62.3163C150.035 63.1398 148.774 64.7109 147.067 64.5033H147.073C146.234 63.6552 150.332 60.5266 151.017 60.0802C152.073 59.395 153.664 58.8369 154.601 58.0982C154.737 57.9911 155.246 57.9041 154.885 57.5895C154.737 57.4601 151.468 57.1655 150.977 57.1432C144.719 56.8731 127.01 59.4061 123.634 65.2801C122.393 67.4381 122.815 68.1835 124.984 69.074C128.613 70.5648 133.186 71.4149 136.982 72.6982C146.382 75.8762 161.008 82.0537 151.977 94.0716C144.94 103.436 121.297 105.282 110.643 103.277C105.456 102.302 101.111 100.682 104.106 94.6295C105.659 91.4872 107.969 89.8915 111.502 89.5277C112.448 89.4295 114.437 89.1886 113.368 90.5008C112.843 91.1457 110.98 91.3735 110.694 92.0698C110.496 92.5518 111.033 92.353 111.254 92.3932C114.979 93.0649 122.221 92.7972 126.211 92.6342C132.594 92.3731 141.171 91.427 146.469 87.6732C148.888 85.9592 148.604 85.2182 146.402 83.3614C139.657 77.6728 127.381 78.4004 119.391 73.9949C115.276 71.7252 115.472 69.1408 116.38 64.9497C118.59 54.7417 124.194 51.2736 133.73 48.3769ZM322.262 73.2071C318.261 74.9679 314.02 76.7534 310.209 78.8936C306.453 81.0026 301.458 84.4171 301.956 89.3893C302.395 93.7635 306.361 90.628 308.276 89.2354C313.447 85.475 318.071 79.5563 321.68 74.2961C321.825 74.0841 322.441 73.399 322.262 73.2071ZM248.171 73.4324C247.845 73.1895 244.203 74.8809 243.556 75.1755C237.816 77.8045 226.918 82.3082 228.099 90.0412C228.657 93.701 233.25 90.041 234.76 88.9207C240.226 84.8634 244.419 79.034 248.171 73.4324ZM282.537 74.9946C282.204 74.6758 275.903 77.4428 275.025 77.858C271.888 79.3376 267.862 81.2391 266.067 84.2988C265.063 86.0128 264.179 88.4543 265.02 90.3914C265.732 92.0295 266.63 91.0454 267.656 90.3513C269.848 88.8693 279.424 81.3507 280.574 79.6122C280.899 79.1187 282.774 75.2225 282.537 74.9946ZM186.124 78.0299C185.906 76.1866 183.75 76.9185 182.627 77.4072C179.043 78.9717 174.408 84.6291 172.073 87.8317C171.902 88.066 170.971 89.3178 171.176 89.4987C171.973 89.6727 172.776 89.2534 173.508 89.269C174.794 89.2958 177.028 90.7529 177.994 90.1839C178.467 89.9048 180.719 87.5014 181.215 86.9279C182.601 85.3232 186.363 80.0273 186.124 78.0299ZM168.468 88.3552C168.437 88.3817 168.407 88.4094 168.377 88.4375C168.427 88.3903 168.478 88.3451 168.53 88.3026L168.468 88.3552Z" fill="#1E3673"/>
</svg>
