<svg width="64" height="64" viewBox="0 0 64 64" fill="none" xmlns="http://www.w3.org/2000/svg">
<path d="M49.7805 19.608C50.2301 19.608 50.6636 19.4296 50.9834 19.1097L55.696 14.3971C56.3258 13.7674 55.9157 12.6866 55.0284 12.6309L52.5206 12.4735L54.157 10.8371C54.4316 10.5625 54.4316 10.1173 54.157 9.84278C53.8824 9.56819 53.4372 9.56819 53.1626 9.84278L51.5262 11.4792L51.3688 8.97137C51.313 8.08252 50.2313 7.67527 49.6027 8.30378L44.89 13.0164C44.5449 13.3615 44.3646 13.8388 44.3952 14.3258L44.5572 16.9066C40.624 13.5529 35.5548 11.6298 30.185 11.6298C17.9235 11.6298 8 21.5521 8 33.8148C8 39.349 10.0494 44.6496 13.7708 48.7399C14.0322 49.027 14.4769 49.048 14.764 48.7868C15.0513 48.5254 15.0723 48.0807 14.811 47.7935C11.3257 43.9626 9.40625 38.9983 9.40625 33.8148C9.40625 22.3573 18.7276 13.0359 30.185 13.0359C35.5543 13.0359 40.6066 15.0937 44.3858 18.6196L41.1775 21.8278C38.276 19.1645 34.4129 17.5346 30.185 17.5346C21.2082 17.5346 13.905 24.8379 13.905 33.8147C13.905 36.3983 14.5283 38.9717 15.7076 41.2567C15.7077 41.2568 15.7077 41.2569 15.7078 41.257C18.4405 46.5521 23.9441 50.0949 30.1851 50.0949C37.8753 50.0949 44.5637 44.6631 46.1269 37.1249C46.2057 36.7446 45.9614 36.3724 45.5812 36.2936C45.201 36.2147 44.8288 36.4591 44.75 36.8393C43.3261 43.7052 37.2008 48.6886 30.1852 48.6886C24.5969 48.6886 19.5282 45.5938 16.9575 40.6121C16.9575 40.612 16.9574 40.6119 16.9574 40.6118C15.8652 38.4954 15.3114 36.2086 15.3114 33.8147C15.3114 25.6133 21.9837 18.9409 30.1851 18.9409C34.0261 18.9409 37.5377 20.4129 40.1835 22.8219L37.0037 26.0016C35.179 24.4071 32.7931 23.4396 30.1851 23.4396C24.4643 23.4396 19.8101 28.0938 19.8101 33.8146C19.8101 39.5355 24.4643 44.1897 30.1851 44.1897C35.9059 44.1897 40.5602 39.5355 40.5602 33.8146C40.5602 31.2067 39.5927 28.8208 37.9981 26.996L41.178 23.8161C43.5683 26.4405 45.0369 29.9183 45.0586 33.7281C45.0608 34.115 45.3752 34.4272 45.7617 34.4272H45.7658C46.1541 34.425 46.467 34.1084 46.4649 33.72C46.4409 29.5261 44.8152 25.6999 42.1724 22.8216L45.3809 19.6131C48.8916 23.3667 50.9638 28.3891 50.9638 33.8145C50.9637 45.2723 41.6425 54.5937 30.185 54.5937C25.4386 54.5937 20.7974 52.9518 17.1165 49.9704C16.8145 49.7261 16.3721 49.7725 16.1275 50.0742C15.8831 50.376 15.9296 50.8188 16.2313 51.0632C20.1619 54.2468 25.1174 56 30.185 56C42.4466 56 52.3701 46.0777 52.3701 33.8148C52.3701 29.0136 50.8613 24.4441 48.007 20.6005C47.7115 20.2026 47.4037 19.8168 47.0856 19.4421C49.8419 19.6152 49.6933 19.608 49.7805 19.608ZM39.1539 33.8148C39.1539 38.7603 35.1305 42.7836 30.185 42.7836C25.2396 42.7836 21.2163 38.7603 21.2163 33.8148C21.2163 28.8694 25.2396 24.846 30.185 24.846C32.4052 24.846 34.4392 25.6572 36.0071 26.9983L32.8074 30.198C32.0702 29.6621 31.1642 29.3447 30.185 29.3447C27.7203 29.3447 25.715 31.35 25.715 33.8148C25.715 36.2796 27.7203 38.2849 30.185 38.2849C32.6499 38.2849 34.6552 36.2796 34.6552 33.8148C34.6552 32.8356 34.3379 31.9296 33.8019 31.1924L37.0016 27.9927C38.3426 29.5606 39.1539 31.5946 39.1539 33.8148ZM29.6878 34.3121C29.9625 34.5867 30.4076 34.5867 30.6822 34.3121L32.7899 32.2044C33.0805 32.6727 33.2489 33.2244 33.2489 33.8149C33.2489 35.5044 31.8744 36.8788 30.1849 36.8788C28.4955 36.8788 27.1211 35.5043 27.1211 33.8149C27.1211 32.1255 28.4955 30.7511 30.1849 30.7511C30.7755 30.7511 31.3272 30.9194 31.7955 31.21L29.6877 33.3178C29.4132 33.5923 29.4132 34.0375 29.6878 34.3121ZM45.7987 14.2377C45.7933 14.1532 45.8247 14.0705 45.8845 14.0107L50.0168 9.8785L50.2004 12.805L45.974 17.0315L45.7987 14.2377ZM46.9684 18.0258L51.1948 13.7993L54.1213 13.983L49.989 18.1153C49.9293 18.1751 49.8459 18.2069 49.7621 18.2011L46.9684 18.0258Z" fill="#315AC4"/>
</svg>
