<svg width="175" height="175" viewBox="0 0 175 175" fill="none" xmlns="http://www.w3.org/2000/svg">
<path d="M55.504 17.6629C55.2329 17.7861 54.9528 17.8364 54.6636 17.8138C54.3788 17.7797 54.118 17.6818 53.881 17.5201C53.6405 17.3505 53.4532 17.1182 53.3192 16.8232C53.1852 16.5282 53.1352 16.2383 53.1694 15.9535C53.2035 15.6687 53.3032 15.4118 53.4685 15.1828C53.6381 14.9423 53.8585 14.7604 54.1296 14.6373C54.4006 14.5142 54.6786 14.4697 54.9634 14.5038C55.2525 14.5263 55.5156 14.6184 55.7525 14.7801C55.9895 14.9418 56.1749 15.1701 56.3089 15.4651C56.4429 15.7601 56.4947 16.0539 56.4642 16.3467C56.43 16.6315 56.3282 16.8942 56.1585 17.1348C55.9932 17.3637 55.7751 17.5398 55.504 17.6629Z" fill="#012C9D" fill-opacity="0.85"/>
<path d="M38.5179 30.91L36.4222 21.0641L38.1216 19.8276L46.8555 24.8436L45.0499 26.1574L37.5551 21.5718L38.2348 21.0772L40.281 29.6272L38.5179 30.91ZM39.0156 28.1113L38.5218 26.4726L42.3454 23.6906L43.7632 24.6569L39.0156 28.1113Z" fill="#012C9D" fill-opacity="0.85"/>
<path d="M30.1673 39.5221L23.5762 33.1114L26.4885 30.1172C27.1845 29.4016 27.9362 28.9051 28.7436 28.6276C29.5446 28.344 30.3396 28.2865 31.1284 28.4552C31.9172 28.6238 32.6474 29.0348 33.319 29.688C33.9844 30.3352 34.4155 31.0538 34.6122 31.8437C34.8027 32.6275 34.7704 33.4268 34.5154 34.2415C34.2542 35.0502 33.7756 35.8123 33.0796 36.5279L30.1673 39.5221ZM30.3986 36.7787L31.754 35.3852C32.1814 34.9458 32.4691 34.4866 32.6173 34.0078C32.7653 33.5165 32.771 33.0334 32.6343 32.5585C32.5038 32.0773 32.2314 31.6352 31.8171 31.2322C31.3965 30.8232 30.9471 30.5631 30.4687 30.4521C29.9902 30.3287 29.5106 30.3508 29.0299 30.5185C28.549 30.6738 28.0949 30.9712 27.6675 31.4106L26.3121 32.8041L30.3986 36.7787Z" fill="#012C9D" fill-opacity="0.85"/>
<path d="M22.284 50.7621L16.9931 42.1982L18.1765 40.4614L28.0898 42.241L26.8325 44.0863L18.2309 42.2945L18.7042 41.5998L23.5117 48.9602L22.284 50.7621ZM21.8096 47.9593L20.7924 46.5829L23.455 42.6751L25.1156 43.1072L21.8096 47.9593Z" fill="#012C9D" fill-opacity="0.85"/>
<path d="M17.7132 60.6952L9.36655 56.8388L11.0358 53.2259C11.3811 52.4787 11.8018 51.8917 12.2979 51.465C12.7862 51.0347 13.3248 50.7771 13.9138 50.6923C14.5028 50.6076 15.1113 50.7102 15.7393 51.0004C16.3593 51.2869 16.8279 51.6818 17.1451 52.1853C17.4544 52.6851 17.6034 53.2604 17.5921 53.9111C17.5808 54.5618 17.4026 55.2608 17.0574 56.008L15.8839 58.5478L15.434 57.2981L18.6057 58.7636L17.7132 60.6952ZM20.1648 55.3891L16.172 56.0765L17.1251 54.0137L21.1289 53.3025L20.1648 55.3891ZM15.6486 57.3973L14.3457 57.8371L15.4696 55.4047C15.745 54.8085 15.8235 54.3046 15.7051 53.8929C15.5786 53.4776 15.2889 53.1652 14.8358 52.9559C14.3747 52.7429 13.949 52.7247 13.5588 52.9013C13.1685 53.0778 12.8356 53.4642 12.5602 54.0604L11.4363 56.4929L10.9148 55.2102L15.6486 57.3973Z" fill="#012C9D" fill-opacity="0.85"/>
<path d="M14.3539 72.1727L5.49298 69.7185L6.5553 65.883C6.77501 65.0897 7.09514 64.4424 7.51569 63.941C7.92779 63.4372 8.4176 63.0959 8.98511 62.9168C9.55261 62.7378 10.1697 62.7407 10.8364 62.9253C11.4946 63.1076 12.021 63.4215 12.4155 63.867C12.8101 64.3124 13.0587 64.8583 13.1614 65.5046C13.2556 66.1486 13.1929 66.8672 12.9731 67.6605L12.2264 70.3567L11.5547 69.1894L14.9219 70.122L14.3539 72.1727ZM11.7826 69.2525L10.5555 69.894L11.2707 67.3116C11.446 66.6787 11.4418 66.1687 11.2583 65.7817C11.0747 65.3946 10.7424 65.1345 10.2614 65.0013C9.77194 64.8657 9.34893 64.9167 8.9924 65.1541C8.63587 65.3916 8.36997 65.8267 8.19467 66.4597L7.47945 69.042L6.75717 67.8606L11.7826 69.2525Z" fill="#012C9D" fill-opacity="0.85"/>
<path d="M13.3949 79.3309C13.3192 79.9303 13.1766 80.4993 12.9674 81.0377C12.7505 81.5664 12.5132 81.9777 12.2553 82.2717L10.8815 81.4096C11.1219 81.1134 11.3348 80.7563 11.52 80.3384C11.6976 79.9107 11.8133 79.484 11.8671 79.0583C11.9264 78.5892 11.9117 78.252 11.8229 78.0466C11.7352 77.8325 11.5915 77.7128 11.3916 77.6875C11.2266 77.6667 11.0951 77.7295 10.9971 77.876C10.8916 78.0127 10.8012 78.2043 10.7259 78.4507C10.6506 78.6972 10.572 78.9697 10.4902 79.2682C10.4094 79.5581 10.315 79.8507 10.2071 80.146C10.0905 80.4402 9.9424 80.7039 9.76286 80.9372C9.58333 81.1704 9.35772 81.3493 9.08601 81.4739C8.81541 81.5897 8.48029 81.6224 8.08066 81.5719C7.63759 81.5159 7.26258 81.3405 6.95561 81.0457C6.64974 80.7423 6.43199 80.3352 6.30235 79.8246C6.16403 79.3128 6.13769 78.7181 6.22334 78.0405C6.28374 77.5627 6.39735 77.0828 6.56419 76.6007C6.73104 76.1187 6.93522 75.7253 7.17676 75.4204L8.5376 76.2809C8.29496 76.5944 8.11692 76.9206 8.0035 77.2593C7.88248 77.5882 7.80166 77.9134 7.76103 78.2348C7.70393 78.6866 7.72303 79.0244 7.8183 79.2483C7.91357 79.4722 8.05677 79.5962 8.2479 79.6203C8.42165 79.6423 8.5613 79.5849 8.66684 79.4482C8.77348 79.3028 8.86877 79.1074 8.95274 78.8621C9.03671 78.6167 9.11909 78.3491 9.19986 78.0592C9.27304 77.7596 9.36794 77.4626 9.48456 77.1685C9.60118 76.8743 9.74872 76.6149 9.92716 76.3903C10.098 76.1559 10.3193 75.9765 10.591 75.852C10.854 75.7263 11.1853 75.6888 11.5849 75.7393C12.0193 75.7942 12.3894 75.9734 12.6953 76.2768C12.9925 76.5792 13.2054 76.99 13.3339 77.5094C13.4635 78.02 13.4839 78.6272 13.3949 79.3309Z" fill="#012C9D" fill-opacity="0.85"/>
<path d="M11.0662 93.7972C11.086 94.0943 11.0344 94.3741 10.9114 94.6368C10.7792 94.8914 10.5957 95.101 10.3609 95.2658C10.1174 95.4312 9.83401 95.5247 9.51073 95.5462C9.18744 95.5677 8.89854 95.5123 8.64401 95.38C8.38949 95.2478 8.18418 95.064 8.02811 94.8286C7.86272 94.5851 7.77014 94.3148 7.75038 94.0178C7.73062 93.7207 7.78687 93.4449 7.91913 93.1904C8.04207 92.9277 8.22092 92.7139 8.45569 92.5491C8.69045 92.3843 8.96949 92.2912 9.29277 92.2697C9.61605 92.2482 9.90931 92.3032 10.1726 92.4349C10.4271 92.5672 10.6371 92.7551 10.8025 92.9986C10.9585 93.2339 11.0464 93.5001 11.0662 93.7972Z" fill="#012C9D" fill-opacity="0.85"/>
<path d="M15.9943 108.282C16.1799 108.957 16.2561 109.631 16.2229 110.303C16.1812 110.977 16.0445 111.537 15.8127 111.982L14.696 111.785C14.8986 111.366 15.0252 110.868 15.0755 110.291C15.1258 109.714 15.0732 109.143 14.9177 108.577C14.7761 108.062 14.6021 107.661 14.3957 107.372C14.1893 107.084 13.9639 106.892 13.7195 106.795C13.4667 106.701 13.2093 106.69 12.9476 106.762C12.6436 106.846 12.4266 107.014 12.2966 107.268C12.1642 107.513 12.0872 107.812 12.0656 108.163C12.0333 108.508 12.0271 108.882 12.0471 109.285C12.0671 109.688 12.0756 110.099 12.0726 110.517C12.0588 110.93 12.0074 111.321 11.9183 111.69C11.8268 112.052 11.66 112.37 11.4179 112.645C11.1673 112.923 10.8056 113.127 10.3327 113.257C9.87678 113.382 9.42633 113.379 8.98139 113.247C8.52568 113.109 8.11538 112.822 7.75048 112.386C7.37481 111.945 7.08022 111.336 6.8667 110.559C6.72513 110.044 6.65227 109.514 6.64812 108.971C6.64397 108.427 6.71749 107.934 6.86869 107.493L7.99678 107.633C7.84791 108.082 7.77663 108.533 7.7829 108.986C7.78073 109.44 7.83418 109.866 7.94326 110.263C8.08018 110.761 8.25608 111.153 8.47092 111.439C8.68576 111.725 8.91961 111.915 9.17247 112.009C9.42301 112.095 9.67916 112.101 9.94091 112.03C10.2533 111.944 10.4757 111.778 10.6081 111.533C10.7382 111.279 10.8151 110.981 10.839 110.638C10.8606 110.287 10.8656 109.909 10.8541 109.504C10.8341 109.1 10.8267 108.694 10.832 108.284C10.8351 107.865 10.8823 107.475 10.9737 107.114C11.0629 106.745 11.2285 106.422 11.4706 106.147C11.7128 105.871 12.066 105.67 12.5304 105.542C12.978 105.419 13.4296 105.427 13.8853 105.565C14.3325 105.705 14.7452 106 15.1231 106.45C15.4904 106.894 15.7807 107.505 15.9943 108.282Z" fill="#012C9D" fill-opacity="0.85"/>
<path d="M21.9141 123.282L11.8208 123.235L11.2898 122.048L17.9775 114.481L18.5406 115.74L12.3367 122.587L12.1222 122.107L21.3617 122.047L21.9141 123.282ZM19.0918 122.602L17.9877 122.707L15.8746 117.983L16.6783 117.206L19.0918 122.602Z" fill="#012C9D" fill-opacity="0.85"/>
<path d="M25.4475 128.444C25.8329 129.029 26.0944 129.633 26.2319 130.255C26.3573 130.875 26.3649 131.484 26.2548 132.081C26.1326 132.675 25.9013 133.231 25.5609 133.749C25.2205 134.267 24.7651 134.714 24.1948 135.09C23.6244 135.465 23.0342 135.707 22.424 135.816C21.8138 135.924 21.2128 135.911 20.6209 135.777C20.0217 135.647 19.4656 135.4 18.9527 135.036C18.4277 134.669 17.9725 134.193 17.587 133.608C17.1968 133.015 16.9402 132.403 16.8173 131.771C16.6823 131.136 16.6966 130.513 16.8602 129.902L18.021 130.16C17.9066 130.655 17.8967 131.133 17.9914 131.595C18.0787 132.062 18.2597 132.504 18.5343 132.92C18.8185 133.352 19.1567 133.706 19.5486 133.982C19.9357 134.252 20.3501 134.435 20.7916 134.532C21.2331 134.629 21.6872 134.634 22.154 134.547C22.6086 134.457 23.048 134.272 23.4721 133.993C23.8962 133.713 24.2429 133.38 24.5122 132.993C24.7693 132.603 24.9403 132.186 25.0253 131.742C25.1103 131.298 25.1054 130.845 25.0108 130.384C24.9113 129.914 24.7195 129.464 24.4352 129.032C24.1606 128.616 23.8297 128.273 23.4426 128.003C23.0481 127.739 22.5973 127.564 22.0902 127.479L22.3115 126.311C22.9376 126.401 23.5192 126.632 24.0564 127.001C24.5887 127.364 25.0525 127.845 25.4475 128.444Z" fill="#012C9D" fill-opacity="0.85"/>
<path d="M31.7266 137.038L24.7123 142.983L23.8631 141.981L30.8773 136.036L31.7266 137.038Z" fill="#012C9D" fill-opacity="0.85"/>
<path d="M37.707 142.887L32.1828 148.745L34.4763 150.908L33.6922 151.739L28.1593 146.521L28.9433 145.69L31.2368 147.853L36.761 141.995L37.707 142.887Z" fill="#012C9D" fill-opacity="0.85"/>
<path d="M45.3649 148.739C45.9362 149.145 46.4216 149.618 46.8212 150.159C47.2158 150.708 47.4642 151.228 47.5664 151.719L46.5771 152.273C46.4689 151.821 46.2517 151.355 45.9255 150.877C45.5994 150.398 45.1971 149.989 44.7187 149.65C44.2831 149.34 43.8942 149.139 43.5519 149.047C43.2096 148.954 42.9133 148.948 42.6631 149.028C42.4079 149.115 42.2017 149.27 42.0446 149.491C41.8621 149.748 41.8008 150.016 41.8607 150.295C41.9134 150.568 42.0425 150.848 42.2479 151.133C42.4412 151.421 42.6731 151.714 42.9438 152.014C43.2144 152.313 43.481 152.626 43.7436 152.952C43.994 153.28 44.2016 153.615 44.3665 153.958C44.5243 154.296 44.5966 154.648 44.5834 155.014C44.5652 155.388 44.4141 155.774 44.1303 156.174C43.8566 156.56 43.5057 156.842 43.0777 157.022C42.6374 157.203 42.1382 157.241 41.5801 157.135C41.0097 157.03 40.3961 156.745 39.7392 156.279C39.3036 155.97 38.9121 155.606 38.5648 155.188C38.2174 154.769 37.9627 154.341 37.8006 153.904L38.7623 153.298C38.9315 153.741 39.1617 154.135 39.4529 154.481C39.739 154.834 40.0498 155.13 40.3854 155.369C40.8067 155.668 41.191 155.86 41.5384 155.945C41.8858 156.031 42.1871 156.03 42.4423 155.943C42.6904 155.85 42.8931 155.693 43.0502 155.472C43.2377 155.208 43.3051 154.939 43.2524 154.665C43.1925 154.387 43.0635 154.107 42.8651 153.827C42.6597 153.541 42.4242 153.245 42.1586 152.938C41.888 152.639 41.6249 152.329 41.3695 152.008C41.1069 151.682 40.8967 151.35 40.739 151.013C40.5741 150.67 40.4982 150.316 40.5114 149.949C40.5245 149.583 40.6705 149.203 40.9493 148.81C41.2179 148.432 41.5724 148.152 42.0126 147.97C42.4478 147.796 42.9541 147.763 43.5316 147.873C44.0969 147.984 44.708 148.273 45.3649 148.739Z" fill="#012C9D" fill-opacity="0.85"/>
<path d="M53.1602 153.661L48.7472 161.727L47.5948 161.097L52.0078 153.03L53.1602 153.661ZM48.6759 162.541L46.2892 163.182L44.8833 162.413L47.6388 161.974L48.6759 162.541Z" fill="#012C9D" fill-opacity="0.85"/>
<path d="M62.6133 157.695L59.1311 166.205L57.9155 165.707L60.9648 158.255L56.3575 156.37L56.7903 155.312L62.6133 157.695Z" fill="#012C9D" fill-opacity="0.85"/>
<path d="M71.6796 159.922C72.362 160.081 72.9706 160.344 73.5055 160.711C74.0319 161.076 74.4607 161.513 74.792 162.022C75.1212 162.539 75.3407 163.102 75.4506 163.712C75.5605 164.322 75.539 164.955 75.3862 165.612C75.2335 166.269 74.9732 166.847 74.6055 167.346C74.2377 167.844 73.793 168.249 73.2713 168.559C72.7476 168.878 72.169 169.085 71.5355 169.18C70.902 169.276 70.2398 169.243 69.5489 169.082C68.8666 168.924 68.2665 168.663 67.7486 168.299C67.2202 167.943 66.7914 167.506 66.4622 166.989C66.1224 166.478 65.9019 165.919 65.8006 165.311C65.6907 164.701 65.7132 164.063 65.8679 163.398C66.0226 162.733 66.2839 162.151 66.6517 161.652C67.0109 161.151 67.4566 160.742 67.9888 160.426C68.5105 160.116 69.0881 159.913 69.7216 159.817C70.3446 159.729 70.9973 159.763 71.6796 159.922ZM71.4148 161.061C70.9201 160.946 70.444 160.925 69.9864 160.998C69.5202 161.07 69.0979 161.223 68.7195 161.459C68.3305 161.701 68.0021 162.011 67.7343 162.389C67.458 162.766 67.2623 163.201 67.1472 163.696C67.0322 164.19 67.0156 164.668 67.0975 165.127C67.1709 165.585 67.3296 166.004 67.5738 166.384C67.8074 166.771 68.1176 167.1 68.5044 167.369C68.8826 167.637 69.3191 167.829 69.8138 167.944C70.317 168.061 70.8016 168.084 71.2678 168.012C71.7254 167.939 72.1487 167.781 72.5376 167.539C72.9246 167.305 73.2563 167 73.5326 166.624C73.8004 166.246 73.9918 165.809 74.1069 165.315C74.222 164.82 74.2428 164.344 74.1694 163.886C74.0876 163.427 73.9255 163.002 73.6833 162.613C73.4392 162.233 73.128 161.909 72.7498 161.641C72.363 161.371 71.918 161.178 71.4148 161.061Z" fill="#012C9D" fill-opacity="0.85"/>
<path d="M81.741 170.718L80.4291 170.652L80.8877 161.469L82.1996 161.535L81.741 170.718ZM87.4733 161.798L88.7852 161.864L88.3266 171.047L87.0147 170.981L87.4733 161.798ZM81.8771 165.622L87.4001 165.898L87.3431 167.039L81.8201 166.763L81.8771 165.622Z" fill="#012C9D" fill-opacity="0.85"/>
<path d="M102.613 160.135C103.302 160.005 103.979 159.983 104.646 160.07C105.315 160.165 105.862 160.347 106.287 160.613L106.001 161.711C105.6 161.475 105.114 161.309 104.543 161.213C103.972 161.116 103.398 161.123 102.822 161.232C102.297 161.332 101.883 161.473 101.579 161.656C101.275 161.838 101.065 162.048 100.949 162.284C100.835 162.528 100.804 162.784 100.855 163.05C100.913 163.36 101.064 163.59 101.307 163.74C101.54 163.892 101.831 163.992 102.18 164.042C102.521 164.102 102.893 164.138 103.297 164.15C103.7 164.163 104.11 164.187 104.527 164.224C104.937 164.271 105.323 164.353 105.684 164.472C106.037 164.592 106.341 164.784 106.596 165.047C106.852 165.319 107.027 165.696 107.118 166.178C107.207 166.642 107.167 167.091 107 167.524C106.826 167.967 106.507 168.353 106.043 168.682C105.573 169.021 104.942 169.266 104.151 169.416C103.626 169.516 103.092 169.546 102.55 169.507C102.008 169.467 101.523 169.354 101.095 169.168L101.325 168.055C101.761 168.24 102.205 168.347 102.656 168.377C103.109 168.415 103.538 168.396 103.942 168.319C104.45 168.223 104.855 168.079 105.157 167.888C105.459 167.697 105.668 167.479 105.782 167.234C105.887 166.991 105.914 166.737 105.864 166.47C105.803 166.152 105.656 165.917 105.422 165.765C105.18 165.615 104.889 165.514 104.549 165.463C104.201 165.413 103.824 165.378 103.419 165.357C103.016 165.345 102.61 165.319 102.201 165.281C101.784 165.245 101.399 165.166 101.047 165.046C100.686 164.928 100.377 164.737 100.122 164.473C99.8672 164.21 99.6946 163.841 99.6047 163.368C99.518 162.912 99.5617 162.463 99.736 162.02C99.9118 161.585 100.239 161.197 100.718 160.857C101.19 160.526 101.822 160.286 102.613 160.135Z" fill="#012C9D" fill-opacity="0.85"/>
<path d="M118.031 155.407L117.201 165.466L115.977 165.904L108.951 158.649L110.25 158.185L116.595 164.902L116.101 165.078L116.757 155.862L118.031 155.407ZM117.134 158.168L117.153 159.277L112.28 161.017L111.568 160.156L117.134 158.168Z" fill="#012C9D" fill-opacity="0.85"/>
<path d="M122.642 153.078L126.785 161.286L125.613 161.878L121.469 153.67L122.642 153.078Z" fill="#012C9D" fill-opacity="0.85"/>
<path d="M132.548 146.626L137.676 154.258L134.699 156.258C134.031 156.707 133.389 156.985 132.775 157.092C132.161 157.199 131.593 157.138 131.07 156.909C130.547 156.68 130.1 156.289 129.728 155.737C129.357 155.185 129.165 154.623 129.15 154.052C129.141 153.489 129.299 152.939 129.625 152.404C129.956 151.876 130.456 151.387 131.125 150.938L133.501 149.341L133.355 150.183L131.458 147.359L132.548 146.626ZM133.282 150.074L134.139 150.289L131.795 151.864C131.097 152.333 130.67 152.836 130.514 153.373C130.351 153.916 130.452 154.459 130.819 155.004C131.185 155.55 131.65 155.849 132.214 155.903C132.77 155.962 133.397 155.756 134.095 155.288L136.439 153.713L136.314 154.587L133.282 150.074Z" fill="#012C9D" fill-opacity="0.85"/>
<path d="M142.559 137.602L145.777 147.168L144.826 148.054L135.503 144.171L136.513 143.232L144.997 146.889L144.613 147.247L141.569 138.523L142.559 137.602ZM142.828 140.492L143.284 141.503L139.497 145.03L138.502 144.52L142.828 140.492Z" fill="#012C9D" fill-opacity="0.85"/>
<path d="M149.056 129.181L156.336 134.798L154.145 137.637C153.653 138.275 153.133 138.741 152.584 139.037C152.035 139.332 151.477 139.454 150.908 139.403C150.34 139.351 149.792 139.122 149.265 138.716C148.738 138.309 148.378 137.837 148.184 137.301C147.996 136.769 147.976 136.2 148.123 135.595C148.269 134.989 148.589 134.367 149.081 133.729L150.83 131.462L150.947 132.299L148.254 130.221L149.056 129.181ZM145.301 134.048L149.371 134.235L148.512 135.348L144.427 135.182L145.301 134.048ZM150.843 132.219L151.714 132.144L149.989 134.38C149.475 135.046 149.23 135.658 149.252 136.217C149.276 136.788 149.547 137.275 150.067 137.676C150.587 138.077 151.123 138.214 151.675 138.087C152.221 137.966 152.751 137.573 153.265 136.908L154.99 134.672L155.149 135.541L150.843 132.219Z" fill="#012C9D" fill-opacity="0.85"/>
<path d="M158.67 122.973L156.394 127.118L155.415 126.581L157.692 122.436L158.67 122.973ZM155.033 121.111L152.453 125.808L151.452 125.258L154.664 119.409L162.723 123.835L159.599 129.523L158.598 128.973L161.089 124.436L155.033 121.111Z" fill="#012C9D" fill-opacity="0.85"/>
<path d="M157.78 111.654L165.321 114.477L166.426 111.525L167.496 111.926L164.83 119.048L163.76 118.647L164.865 115.695L157.324 112.872L157.78 111.654Z" fill="#012C9D" fill-opacity="0.85"/>
<path d="M166.715 94.8703L166.094 99.5579L164.987 99.4112L165.608 94.7236L166.715 94.8703ZM162.65 94.4508L161.946 99.7634L160.813 99.6133L161.69 92.9985L170.805 94.2066L169.952 100.639L168.819 100.489L169.499 95.3586L162.65 94.4508Z" fill="#012C9D" fill-opacity="0.85"/>
<path d="M160.709 73.562L170.284 76.756L170.418 78.0494L161.703 83.1518L161.561 81.7799L169.592 77.2107L169.646 77.7333L160.849 74.9077L160.709 73.562ZM163.178 75.0889L164.26 75.3333L164.794 80.481L163.788 80.9682L163.178 75.0889Z" fill="#012C9D" fill-opacity="0.85"/>
<path d="M159.536 68.5311L168.491 66.4438L168.789 67.7231L159.835 69.8103L159.536 68.5311Z" fill="#012C9D" fill-opacity="0.85"/>
<path d="M155.609 57.3792L164.238 54.2021L165.477 57.5671C165.755 58.3231 165.873 59.0121 165.832 59.6339C165.79 60.2558 165.596 60.7938 165.25 61.2478C164.904 61.7018 164.419 62.0438 163.794 62.2737C163.17 62.5037 162.579 62.5581 162.021 62.4369C161.471 62.3127 160.975 62.0289 160.532 61.5855C160.097 61.1392 159.74 60.538 159.462 59.782L158.472 57.0949L159.256 57.4363L156.063 58.6118L155.609 57.3792ZM159.132 57.4817L159.544 56.7001L160.52 59.3501C160.811 60.139 161.199 60.6727 161.684 60.9513C162.172 61.2381 162.724 61.2681 163.34 61.0411C163.957 60.8142 164.358 60.4333 164.543 59.8984C164.732 59.3717 164.681 58.7139 164.391 57.925L163.415 55.2749L164.235 55.6027L159.132 57.4817Z" fill="#012C9D" fill-opacity="0.85"/>
<path d="M149.19 45.5288L159.245 44.645L159.883 45.7781L153.921 53.9293L153.244 52.7276L158.791 45.3379L159.049 45.7957L149.854 46.7076L149.19 45.5288ZM152.063 45.9459L153.153 45.7393L155.692 50.2485L154.964 51.0961L152.063 45.9459Z" fill="#012C9D" fill-opacity="0.85"/>
<path d="M142.525 37.2442L149.689 31.4819L151.937 34.2762C152.442 34.904 152.774 35.5192 152.932 36.1219C153.091 36.7246 153.079 37.2963 152.896 37.8369C152.713 38.3776 152.362 38.8565 151.843 39.2736C151.324 39.6906 150.781 39.9307 150.214 39.9937C149.653 40.0512 149.096 39.9378 148.541 39.6534C147.987 39.369 147.457 38.9129 146.952 38.2851L145.158 36.0538L145.999 36.1357L143.348 38.2678L142.525 37.2442ZM146.377 42.0344L147.512 38.1216L148.392 39.2168L147.274 43.1501L146.377 42.0344ZM145.896 36.218L146.028 35.3541L147.797 37.5547C148.324 38.2098 148.862 38.592 149.411 38.7014C149.972 38.8121 150.508 38.6616 151.02 38.25C151.532 37.8384 151.79 37.3495 151.796 36.7833C151.806 36.224 151.548 35.6168 151.022 34.9617L149.252 32.7611L150.134 32.8101L145.896 36.218Z" fill="#012C9D" fill-opacity="0.85"/>
<path d="M138.748 26.439L142.242 29.6254L141.489 30.4503L137.996 27.2639L138.748 26.439ZM136.083 29.5369L140.042 33.1482L139.272 33.9925L134.342 29.4961L140.538 22.7026L145.332 27.0751L144.562 27.9194L140.738 24.4321L136.083 29.5369Z" fill="#012C9D" fill-opacity="0.85"/>
<path d="M127.54 24.6415L132.06 17.9788L129.452 16.2088L130.094 15.2632L136.387 19.5334L135.745 20.479L133.137 18.709L128.616 25.3717L127.54 24.6415Z" fill="#012C9D" fill-opacity="0.85"/>
<path d="M117.734 19.6024C117.1 19.3047 116.56 18.9206 116.113 18.4498C115.675 17.9828 115.347 17.466 115.129 16.8995C114.915 16.3251 114.818 15.7281 114.838 15.1087C114.857 14.4893 115.011 13.8744 115.297 13.264C115.584 12.6536 115.959 12.1429 116.422 11.7318C116.886 11.3207 117.406 11.0179 117.981 10.8234C118.559 10.621 119.168 10.5393 119.808 10.5783C120.447 10.6172 121.088 10.7874 121.73 11.0888C122.364 11.3864 122.897 11.7669 123.327 12.2302C123.77 12.6892 124.098 13.206 124.312 13.7805C124.538 14.3507 124.637 14.9437 124.609 15.5594C124.589 16.1788 124.434 16.7977 124.144 17.416C123.853 18.0343 123.476 18.549 123.013 18.9601C122.557 19.3749 122.036 19.6816 121.449 19.8803C120.874 20.0748 120.267 20.1525 119.627 20.1136C119 20.0704 118.369 19.9 117.734 19.6024ZM118.231 18.5441C118.691 18.7599 119.152 18.8797 119.615 18.9034C120.086 18.9309 120.531 18.8689 120.95 18.7175C121.381 18.5619 121.767 18.327 122.108 18.013C122.456 17.7027 122.739 17.3177 122.955 16.8579C123.17 16.3982 123.286 15.935 123.302 15.4684C123.326 15.0056 123.258 14.5627 123.099 14.1396C122.951 13.7124 122.716 13.3265 122.394 12.982C122.08 12.6411 121.693 12.3628 121.233 12.147C120.766 11.9275 120.296 11.804 119.826 11.7765C119.363 11.7528 118.916 11.8187 118.485 11.9744C118.058 12.1221 117.67 12.3511 117.321 12.6614C116.98 12.9754 116.702 13.3623 116.486 13.822C116.27 14.2818 116.151 14.7431 116.127 15.206C116.111 15.6725 116.181 16.1213 116.336 16.5522C116.496 16.9752 116.733 17.3572 117.047 17.698C117.369 18.0426 117.763 18.3246 118.231 18.5441Z" fill="#012C9D" fill-opacity="0.85"/>
<path d="M106.407 15.4653C105.733 15.2745 105.117 14.991 104.559 14.6147C104.004 14.23 103.595 13.8232 103.334 13.3945L104.081 12.541C104.335 12.9313 104.695 13.2972 105.163 13.6389C105.63 13.9805 106.146 14.2312 106.711 14.391C107.225 14.5364 107.659 14.5955 108.012 14.5682C108.366 14.5408 108.647 14.4475 108.856 14.2882C109.067 14.1205 109.21 13.906 109.284 13.6448C109.37 13.3415 109.338 13.0685 109.188 12.8259C109.046 12.5857 108.831 12.3655 108.542 12.1654C108.264 11.9592 107.947 11.7603 107.592 11.5688C107.236 11.3772 106.88 11.1718 106.524 10.9526C106.178 10.7273 105.87 10.4809 105.6 10.2133C105.338 9.94817 105.152 9.64072 105.042 9.29097C104.934 8.9328 104.947 8.51779 105.08 8.04595C105.209 7.59096 105.445 7.20727 105.788 6.89488C106.142 6.57644 106.6 6.37383 107.162 6.28702C107.734 6.19417 108.408 6.25744 109.183 6.47682C109.697 6.62228 110.187 6.83395 110.655 7.11184C111.122 7.38972 111.505 7.70751 111.805 8.0652L111.101 8.95826C110.794 8.59818 110.445 8.30376 110.055 8.075C109.667 7.83781 109.275 7.66318 108.879 7.5511C108.382 7.41041 107.955 7.35795 107.599 7.39373C107.243 7.4295 106.96 7.53125 106.748 7.69897C106.545 7.86907 106.407 8.08473 106.333 8.34593C106.245 8.65768 106.271 8.93366 106.413 9.17387C106.563 9.41647 106.778 9.63665 107.059 9.83441C107.348 10.0346 107.669 10.2346 108.022 10.4346C108.377 10.6262 108.729 10.8304 109.077 11.0472C109.434 11.2664 109.743 11.5086 110.004 11.7738C110.274 12.0414 110.465 12.35 110.575 12.6998C110.685 13.0495 110.675 13.4561 110.544 13.9195C110.417 14.3661 110.177 14.7486 109.823 15.067C109.471 15.377 109.005 15.5772 108.425 15.6677C107.855 15.7521 107.182 15.6846 106.407 15.4653Z" fill="#012C9D" fill-opacity="0.85"/>
<path d="M95.9882 13.5028C95.2937 13.4112 94.6432 13.2196 94.0369 12.9277C93.4318 12.6272 92.9692 12.2836 92.6492 11.897L93.2648 10.9447C93.572 11.2943 93.9816 11.6044 94.4936 11.875C95.0055 12.1456 95.5524 12.3192 96.134 12.3958C96.6636 12.4656 97.1014 12.4615 97.4473 12.3834C97.7932 12.3053 98.058 12.1724 98.2417 11.9846C98.4266 11.7882 98.5368 11.5554 98.5722 11.2862C98.6134 10.9737 98.5424 10.7082 98.3592 10.4898C98.1847 10.2725 97.9399 10.0856 97.6249 9.92931C97.3197 9.76545 96.9774 9.61437 96.5982 9.47608C96.219 9.33779 95.8371 9.18591 95.4526 9.02043C95.078 8.84742 94.7377 8.64802 94.4318 8.42224C94.1346 8.1976 93.9062 7.9202 93.7465 7.59004C93.588 7.25119 93.5408 6.83868 93.6049 6.35251C93.6666 5.8837 93.8448 5.46997 94.1394 5.11132C94.4437 4.74514 94.8675 4.47858 95.4106 4.31167C95.9635 4.13721 96.6393 4.10259 97.438 4.20783C97.9676 4.2776 98.4837 4.41625 98.9863 4.62379C99.4889 4.83133 99.914 5.09048 100.262 5.40126L99.6947 6.38644C99.3384 6.07452 98.9506 5.83353 98.5314 5.66348C98.1133 5.48474 97.7002 5.3685 97.2922 5.31474C96.78 5.24725 96.3503 5.25689 96.0033 5.34365C95.6562 5.43041 95.3903 5.57201 95.2054 5.76847C95.0292 5.96606 94.9234 6.19943 94.8879 6.46856C94.8456 6.78978 94.9117 7.05904 95.0862 7.27635C95.2694 7.49479 95.5142 7.68161 95.8205 7.83679C96.1356 7.99312 96.4821 8.14477 96.8602 8.29174C97.2395 8.43003 97.617 8.58134 97.9928 8.74567C98.3773 8.91115 98.7181 9.1062 99.0153 9.33084C99.3212 9.55662 99.554 9.83459 99.7136 10.1648C99.8733 10.4949 99.9216 10.8988 99.8587 11.3762C99.7981 11.8364 99.6156 12.2495 99.3112 12.6157C99.008 12.9732 98.5755 13.2386 98.0139 13.4119C97.4621 13.5777 96.7869 13.608 95.9882 13.5028Z" fill="#012C9D" fill-opacity="0.85"/>
<path d="M79.8645 13.0948L83.8557 3.82411L85.1559 3.7998L89.5039 12.9146L88.125 12.9404L84.2503 4.55242L84.7756 4.5426L81.2172 13.0695L79.8645 13.0948ZM81.5944 10.7635L81.9294 9.70622L87.1037 9.6095L87.5042 10.653L81.5944 10.7635Z" fill="#012C9D" fill-opacity="0.85"/>
<path d="M66.5136 15.7939L64.6933 6.78136L65.749 6.56813L71.1674 12.5625L70.6009 12.6769L73.2166 5.05991L74.2723 4.84668L76.1055 13.8566L74.8695 14.1062L73.429 7.04045L73.7251 6.98064L71.3782 13.6724L70.7859 13.792L66.0001 8.54087L66.322 8.47586L67.7496 15.5443L66.5136 15.7939Z" fill="#012C9D" fill-opacity="0.85"/>
</svg>
