<svg width="113" height="113" viewBox="0 0 113 113" fill="none" xmlns="http://www.w3.org/2000/svg">
<path d="M67.9597 2.20734V2.21098C68.0025 2.4849 67.6355 2.4569 67.4399 2.52398C60.5749 4.86636 54.3545 5.7498 48.4992 10.6004C30.4305 25.564 58.5554 42.378 70.2585 49.0138C79.6459 54.3377 90.3859 59.4846 100.934 61.9351C102.553 62.3115 104.565 62.4699 106.087 62.9301C106.337 63.0047 106.653 63.0011 106.711 63.329C94.1863 65.172 81.4121 61.9668 69.6401 57.9268C69.8544 61.7003 70.0387 65.3974 69.3942 69.1411C66.0632 88.4782 41.5747 102.926 24.7913 109.5C23.1407 110.147 21.4379 110.803 19.7109 111.218C31.9934 101.323 43.4078 89.6243 48.8234 74.4669C51.4465 67.1286 52.7263 57.9491 50.2523 50.3872C49.047 46.7032 43.1079 39.8139 40.7978 35.9919C36.1181 28.2474 31.3861 15.818 39.557 8.73311C47.0461 2.2408 58.5964 2.19057 67.9597 2.20734ZM60.8377 13.0657C66.6892 12.3185 71.7936 17.5864 72.2445 23.1768C72.9207 31.5848 64.5151 38.9305 56.6553 34.1116C48.1994 28.9274 51.0329 14.3179 60.8377 13.0657Z" fill="#012C9D"/>
</svg>
