<svg width="175" height="175" viewBox="0 0 175 175" fill="none" xmlns="http://www.w3.org/2000/svg">
<path d="M98.9597 33.2073V33.211C99.0025 33.4849 98.6355 33.4569 98.4399 33.524C91.5749 35.8664 85.3545 36.7498 79.4992 41.6004C61.4305 56.564 89.5554 73.378 101.259 80.0138C110.646 85.3377 121.386 90.4846 131.934 92.9351C133.553 93.3115 135.565 93.4699 137.087 93.9301C137.337 94.0047 137.653 94.0011 137.711 94.329C125.186 96.172 112.412 92.9668 100.64 88.9268C100.854 92.7003 101.039 96.3974 100.394 100.141C97.0632 119.478 72.5747 133.926 55.7913 140.5C54.1407 141.147 52.4379 141.803 50.7109 142.218C62.9934 132.323 74.4078 120.624 79.8234 105.467C82.4465 98.1286 83.7263 88.9491 81.2523 81.3872C80.047 77.7032 74.1079 70.8139 71.7978 66.9919C67.1181 59.2474 62.3861 46.818 70.557 39.7331C78.0461 33.2408 89.5964 33.1906 98.9597 33.2073ZM91.8377 44.0657C97.6892 43.3185 102.794 48.5864 103.244 54.1768C103.921 62.5848 95.5151 69.9305 87.6553 65.1116C79.1994 59.9274 82.0329 45.3179 91.8377 44.0657Z" fill="#012C9D"/>
<path d="M55.504 17.6629C55.2329 17.7861 54.9528 17.8364 54.6636 17.8138C54.3788 17.7797 54.118 17.6818 53.881 17.5201C53.6405 17.3505 53.4532 17.1182 53.3192 16.8232C53.1852 16.5282 53.1352 16.2383 53.1694 15.9535C53.2035 15.6687 53.3032 15.4118 53.4685 15.1828C53.6381 14.9423 53.8585 14.7604 54.1296 14.6373C54.4006 14.5142 54.6786 14.4697 54.9634 14.5038C55.2525 14.5263 55.5156 14.6184 55.7525 14.7801C55.9895 14.9418 56.1749 15.1701 56.3089 15.4651C56.4429 15.7601 56.4947 16.0539 56.4642 16.3467C56.43 16.6315 56.3282 16.8942 56.1585 17.1348C55.9932 17.3637 55.7751 17.5398 55.504 17.6629Z" fill="#012C9D" fill-opacity="0.85"/>
<path d="M38.5218 30.91L36.4261 21.0641L38.1255 19.8276L46.8594 24.8436L45.0538 26.1574L37.559 21.5718L38.2387 21.0772L40.2849 29.6272L38.5218 30.91ZM39.0195 28.1113L38.5257 26.4726L42.3493 23.6906L43.7672 24.6569L39.0195 28.1113Z" fill="#012C9D" fill-opacity="0.85"/>
<path d="M30.1712 39.5221L23.5801 33.1114L26.4924 30.1172C27.1884 29.4016 27.9401 28.9051 28.7475 28.6276C29.5485 28.344 30.3435 28.2865 31.1323 28.4552C31.9211 28.6238 32.6513 29.0348 33.3229 29.688C33.9883 30.3352 34.4194 31.0538 34.6161 31.8437C34.8066 32.6275 34.7743 33.4268 34.5194 34.2415C34.2581 35.0502 33.7795 35.8123 33.0835 36.5279L30.1712 39.5221ZM30.4025 36.7787L31.7579 35.3852C32.1853 34.9458 32.473 34.4866 32.6212 34.0078C32.7692 33.5165 32.7749 33.0334 32.6383 32.5585C32.5077 32.0773 32.2353 31.6352 31.821 31.2322C31.4004 30.8232 30.951 30.5631 30.4726 30.4521C29.9941 30.3287 29.5145 30.3508 29.0338 30.5185C28.5529 30.6738 28.0988 30.9712 27.6714 31.4106L26.316 32.8041L30.4025 36.7787Z" fill="#012C9D" fill-opacity="0.85"/>
<path d="M22.284 50.7621L16.9931 42.1982L18.1765 40.4614L28.0898 42.241L26.8325 44.0863L18.2309 42.2945L18.7042 41.5998L23.5117 48.9602L22.284 50.7621ZM21.8096 47.9593L20.7924 46.5829L23.455 42.6751L25.1156 43.1072L21.8096 47.9593Z" fill="#012C9D" fill-opacity="0.85"/>
<path d="M17.7171 60.6952L9.37045 56.8388L11.0397 53.2259C11.385 52.4787 11.8057 51.8917 12.3018 51.465C12.7901 51.0347 13.3287 50.7771 13.9177 50.6923C14.5067 50.6076 15.1152 50.7102 15.7432 51.0004C16.3632 51.2869 16.8318 51.6818 17.149 52.1853C17.4583 52.6851 17.6073 53.2604 17.596 53.9111C17.5848 54.5618 17.4065 55.2608 17.0613 56.008L15.8878 58.5478L15.4379 57.2981L18.6096 58.7636L17.7171 60.6952ZM20.1687 55.3891L16.1759 56.0765L17.129 54.0137L21.1328 53.3025L20.1687 55.3891ZM15.6525 57.3973L14.3496 57.8371L15.4735 55.4047C15.749 54.8085 15.8275 54.3046 15.709 53.8929C15.5825 53.4776 15.2928 53.1652 14.8397 52.9559C14.3786 52.7429 13.9529 52.7247 13.5627 52.9013C13.1724 53.0778 12.8395 53.4642 12.5641 54.0604L11.4402 56.4929L10.9187 55.2102L15.6525 57.3973Z" fill="#012C9D" fill-opacity="0.85"/>
<path d="M14.3578 72.1727L5.49689 69.7185L6.5592 65.883C6.77891 65.0897 7.09905 64.4424 7.51959 63.941C7.9317 63.4372 8.42151 63.0959 8.98901 62.9168C9.55652 62.7378 10.1736 62.7407 10.8403 62.9253C11.4985 63.1076 12.0249 63.4215 12.4194 63.867C12.814 64.3124 13.0626 64.8583 13.1653 65.5046C13.2595 66.1486 13.1968 66.8672 12.9771 67.6605L12.2303 70.3567L11.5586 69.1894L14.9258 70.122L14.3578 72.1727ZM11.7865 69.2525L10.5594 69.894L11.2746 67.3116C11.4499 66.6787 11.4457 66.1687 11.2622 65.7817C11.0786 65.3946 10.7463 65.1345 10.2653 65.0013C9.77584 64.8657 9.35284 64.9167 8.99631 65.1541C8.63978 65.3916 8.37388 65.8267 8.19858 66.4597L7.48335 69.042L6.76108 67.8606L11.7865 69.2525Z" fill="#012C9D" fill-opacity="0.85"/>
<path d="M13.3988 79.3309C13.3231 79.9303 13.1805 80.4993 12.9713 81.0377C12.7544 81.5664 12.5171 81.9777 12.2592 82.2717L10.8854 81.4096C11.1258 81.1134 11.3387 80.7563 11.5239 80.3384C11.7015 79.9107 11.8172 79.484 11.871 79.0583C11.9303 78.5892 11.9156 78.252 11.8268 78.0466C11.7391 77.8325 11.5954 77.7128 11.3956 77.6875C11.2305 77.6667 11.099 77.7295 11.001 77.876C10.8955 78.0127 10.8051 78.2043 10.7298 78.4507C10.6545 78.6972 10.5759 78.9697 10.4941 79.2682C10.4133 79.5581 10.3189 79.8507 10.211 80.146C10.0944 80.4402 9.9463 80.7039 9.76677 80.9372C9.58724 81.1704 9.36163 81.3493 9.08992 81.4739C8.81931 81.5897 8.48419 81.6224 8.08456 81.5719C7.6415 81.5159 7.26649 81.3405 6.95952 81.0457C6.65365 80.7423 6.43589 80.3352 6.30626 79.8246C6.16794 79.3128 6.1416 78.7181 6.22725 78.0405C6.28764 77.5627 6.40126 77.0828 6.5681 76.6007C6.73494 76.1187 6.93912 75.7253 7.18067 75.4204L8.5415 76.2809C8.29887 76.5944 8.12082 76.9206 8.0074 77.2593C7.88639 77.5882 7.80557 77.9134 7.76494 78.2348C7.70784 78.6866 7.72693 79.0244 7.82221 79.2483C7.91748 79.4722 8.06068 79.5962 8.2518 79.6203C8.42555 79.6423 8.5652 79.5849 8.67075 79.4482C8.77739 79.3028 8.87268 79.1074 8.95665 78.8621C9.04062 78.6167 9.12299 78.3491 9.20377 78.0592C9.27695 77.7596 9.37184 77.4626 9.48847 77.1685C9.60509 76.8743 9.75263 76.6149 9.93106 76.3903C10.1019 76.1559 10.3232 75.9765 10.5949 75.852C10.8579 75.7263 11.1892 75.6888 11.5889 75.7393C12.0232 75.7942 12.3933 75.9734 12.6992 76.2768C12.9964 76.5792 13.2093 76.99 13.3378 77.5094C13.4674 78.02 13.4878 78.6272 13.3988 79.3309Z" fill="#012C9D" fill-opacity="0.85"/>
<path d="M11.0662 93.7972C11.086 94.0943 11.0344 94.3741 10.9114 94.6368C10.7792 94.8914 10.5957 95.101 10.3609 95.2658C10.1174 95.4312 9.83401 95.5247 9.51073 95.5462C9.18744 95.5677 8.89854 95.5123 8.64401 95.38C8.38949 95.2478 8.18418 95.064 8.02811 94.8286C7.86272 94.5851 7.77014 94.3148 7.75038 94.0178C7.73062 93.7207 7.78687 93.4449 7.91913 93.1904C8.04207 92.9277 8.22092 92.7139 8.45569 92.5491C8.69045 92.3843 8.96949 92.2912 9.29277 92.2697C9.61605 92.2482 9.90931 92.3032 10.1726 92.4349C10.4271 92.5672 10.6371 92.7551 10.8025 92.9986C10.9585 93.2339 11.0464 93.5001 11.0662 93.7972Z" fill="#012C9D" fill-opacity="0.85"/>
<path d="M15.9982 108.282C16.1838 108.957 16.26 109.631 16.2268 110.303C16.1851 110.977 16.0484 111.537 15.8166 111.982L14.6999 111.785C14.9026 111.366 15.0291 110.868 15.0794 110.291C15.1297 109.714 15.0771 109.143 14.9216 108.577C14.78 108.062 14.606 107.661 14.3996 107.372C14.1932 107.084 13.9678 106.892 13.7234 106.795C13.4706 106.701 13.2132 106.69 12.9515 106.762C12.6475 106.846 12.4305 107.014 12.3005 107.268C12.1681 107.513 12.0911 107.812 12.0695 108.163C12.0372 108.508 12.031 108.882 12.051 109.285C12.071 109.688 12.0795 110.099 12.0765 110.517C12.0627 110.93 12.0113 111.321 11.9222 111.69C11.8307 112.052 11.6639 112.37 11.4218 112.645C11.1712 112.923 10.8095 113.127 10.3366 113.257C9.88069 113.382 9.43023 113.379 8.98529 113.247C8.52959 113.109 8.11928 112.822 7.75438 112.386C7.37871 111.945 7.08412 111.336 6.87061 110.559C6.72904 110.044 6.65618 109.514 6.65203 108.971C6.64787 108.427 6.7214 107.934 6.87259 107.493L8.00069 107.633C7.85182 108.082 7.78053 108.533 7.78681 108.986C7.78464 109.44 7.83808 109.866 7.94716 110.263C8.08409 110.761 8.25998 111.153 8.47483 111.439C8.68967 111.725 8.92352 111.915 9.17638 112.009C9.42692 112.095 9.68306 112.101 9.94481 112.03C10.2572 111.944 10.4796 111.778 10.612 111.533C10.7421 111.279 10.819 110.981 10.8429 110.638C10.8645 110.287 10.8695 109.909 10.858 109.504C10.838 109.1 10.8306 108.694 10.836 108.284C10.839 107.865 10.8862 107.475 10.9776 107.114C11.0668 106.745 11.2324 106.422 11.4745 106.147C11.7167 105.871 12.07 105.67 12.5344 105.542C12.9819 105.419 13.4335 105.427 13.8892 105.565C14.3364 105.705 14.7491 106 15.127 106.45C15.4943 106.894 15.7846 107.505 15.9982 108.282Z" fill="#012C9D" fill-opacity="0.85"/>
<path d="M21.918 123.282L11.8247 123.235L11.2937 122.048L17.9814 114.481L18.5445 115.74L12.3406 122.587L12.1261 122.107L21.3656 122.047L21.918 123.282ZM19.0957 122.602L17.9916 122.707L15.8785 117.983L16.6822 117.206L19.0957 122.602Z" fill="#012C9D" fill-opacity="0.85"/>
<path d="M25.4475 128.444C25.8329 129.029 26.0944 129.633 26.2319 130.255C26.3573 130.875 26.3649 131.484 26.2548 132.081C26.1326 132.675 25.9013 133.231 25.5609 133.749C25.2205 134.267 24.7651 134.714 24.1948 135.09C23.6244 135.465 23.0342 135.707 22.424 135.816C21.8138 135.924 21.2128 135.911 20.6209 135.777C20.0217 135.647 19.4656 135.4 18.9527 135.036C18.4277 134.669 17.9725 134.193 17.587 133.608C17.1968 133.015 16.9402 132.403 16.8173 131.771C16.6823 131.136 16.6966 130.513 16.8602 129.902L18.021 130.16C17.9066 130.655 17.8967 131.133 17.9914 131.595C18.0787 132.062 18.2597 132.504 18.5343 132.92C18.8185 133.352 19.1567 133.706 19.5486 133.982C19.9357 134.252 20.3501 134.435 20.7916 134.532C21.2331 134.629 21.6872 134.634 22.154 134.547C22.6086 134.457 23.048 134.272 23.4721 133.993C23.8962 133.713 24.2429 133.38 24.5122 132.993C24.7693 132.603 24.9403 132.186 25.0253 131.742C25.1103 131.298 25.1054 130.845 25.0108 130.384C24.9113 129.914 24.7195 129.464 24.4352 129.032C24.1606 128.616 23.8297 128.273 23.4426 128.003C23.0481 127.739 22.5973 127.564 22.0902 127.479L22.3115 126.311C22.9376 126.401 23.5192 126.632 24.0564 127.001C24.5887 127.364 25.0525 127.845 25.4475 128.444Z" fill="#012C9D" fill-opacity="0.85"/>
<path d="M31.7305 137.038L24.7162 142.983L23.867 141.981L30.8812 136.036L31.7305 137.038Z" fill="#012C9D" fill-opacity="0.85"/>
<path d="M37.7109 142.887L32.1867 148.745L34.4802 150.908L33.6962 151.739L28.1632 146.521L28.9473 145.69L31.2407 147.853L36.7649 141.995L37.7109 142.887Z" fill="#012C9D" fill-opacity="0.85"/>
<path d="M45.3688 148.739C45.9401 149.145 46.4255 149.618 46.8251 150.159C47.2197 150.708 47.4681 151.228 47.5703 151.719L46.581 152.273C46.4728 151.821 46.2556 151.355 45.9294 150.877C45.6033 150.398 45.201 149.989 44.7226 149.65C44.287 149.34 43.8981 149.139 43.5558 149.047C43.2135 148.954 42.9172 148.948 42.667 149.028C42.4118 149.115 42.2056 149.27 42.0485 149.491C41.866 149.748 41.8047 150.016 41.8646 150.295C41.9173 150.568 42.0464 150.848 42.2518 151.133C42.4451 151.421 42.677 151.714 42.9477 152.014C43.2183 152.313 43.4849 152.626 43.7475 152.952C43.9979 153.28 44.2055 153.615 44.3704 153.958C44.5282 154.296 44.6005 154.648 44.5873 155.014C44.5691 155.388 44.418 155.774 44.1342 156.174C43.8605 156.56 43.5096 156.842 43.0816 157.022C42.6413 157.203 42.1422 157.241 41.584 157.135C41.0136 157.03 40.4 156.745 39.7431 156.279C39.3075 155.97 38.916 155.606 38.5687 155.188C38.2213 154.769 37.9666 154.341 37.8045 153.904L38.7662 153.298C38.9354 153.741 39.1656 154.135 39.4568 154.481C39.7429 154.834 40.0537 155.13 40.3893 155.369C40.8106 155.668 41.1949 155.86 41.5423 155.945C41.8897 156.031 42.191 156.03 42.4462 155.943C42.6943 155.85 42.897 155.693 43.0541 155.472C43.2416 155.208 43.309 154.939 43.2563 154.665C43.1965 154.387 43.0674 154.107 42.869 153.827C42.6636 153.541 42.4281 153.245 42.1625 152.938C41.8919 152.639 41.6288 152.329 41.3734 152.008C41.1108 151.682 40.9007 151.35 40.7429 151.013C40.578 150.67 40.5021 150.316 40.5153 149.949C40.5284 149.583 40.6744 149.203 40.9532 148.81C41.2218 148.432 41.5763 148.152 42.0165 147.97C42.4517 147.796 42.958 147.763 43.5355 147.873C44.1008 147.984 44.7119 148.273 45.3688 148.739Z" fill="#012C9D" fill-opacity="0.85"/>
<path d="M53.1641 153.661L48.7511 161.727L47.5987 161.097L52.0117 153.03L53.1641 153.661ZM48.6798 162.541L46.2931 163.182L44.8873 162.413L47.6427 161.974L48.6798 162.541Z" fill="#012C9D" fill-opacity="0.85"/>
<path d="M62.6133 157.695L59.1311 166.205L57.9155 165.707L60.9648 158.255L56.3575 156.37L56.7903 155.312L62.6133 157.695Z" fill="#012C9D" fill-opacity="0.85"/>
<path d="M71.6835 159.922C72.3659 160.081 72.9745 160.344 73.5094 160.711C74.0358 161.076 74.4646 161.513 74.7959 162.022C75.1251 162.539 75.3446 163.102 75.4545 163.712C75.5644 164.322 75.5429 164.955 75.3902 165.612C75.2374 166.269 74.9771 166.847 74.6094 167.346C74.2416 167.844 73.7969 168.249 73.2752 168.559C72.7515 168.878 72.1729 169.085 71.5394 169.18C70.9059 169.276 70.2437 169.243 69.5528 169.082C68.8705 168.924 68.2704 168.663 67.7525 168.299C67.2241 167.943 66.7953 167.506 66.4661 166.989C66.1263 166.478 65.9058 165.919 65.8045 165.311C65.6946 164.701 65.7171 164.063 65.8718 163.398C66.0266 162.733 66.2878 162.151 66.6556 161.652C67.0148 161.151 67.4605 160.742 67.9927 160.426C68.5144 160.116 69.092 159.913 69.7255 159.817C70.3486 159.729 71.0012 159.763 71.6835 159.922ZM71.4187 161.061C70.924 160.946 70.4479 160.925 69.9903 160.998C69.5241 161.07 69.1019 161.223 68.7234 161.459C68.3344 161.701 68.006 162.011 67.7382 162.389C67.4619 162.766 67.2662 163.201 67.1512 163.696C67.0361 164.19 67.0195 164.668 67.1014 165.127C67.1748 165.585 67.3335 166.004 67.5777 166.384C67.8113 166.771 68.1215 167.1 68.5083 167.369C68.8865 167.637 69.323 167.829 69.8177 167.944C70.3209 168.061 70.8056 168.084 71.2717 168.012C71.7293 167.939 72.1526 167.781 72.5415 167.539C72.9285 167.305 73.2602 167 73.5365 166.624C73.8043 166.246 73.9957 165.809 74.1108 165.315C74.2259 164.82 74.2467 164.344 74.1734 163.886C74.0915 163.427 73.9294 163.002 73.6873 162.613C73.4431 162.233 73.1319 161.909 72.7537 161.641C72.3669 161.371 71.9219 161.178 71.4187 161.061Z" fill="#012C9D" fill-opacity="0.85"/>
<path d="M81.7449 170.718L80.433 170.652L80.8916 161.469L82.2035 161.535L81.7449 170.718ZM87.4772 161.798L88.7891 161.864L88.3305 171.047L87.0186 170.981L87.4772 161.798ZM81.881 165.622L87.404 165.898L87.347 167.039L81.824 166.763L81.881 165.622Z" fill="#012C9D" fill-opacity="0.85"/>
<path d="M102.617 160.135C103.305 160.005 103.983 159.983 104.65 160.07C105.319 160.165 105.866 160.347 106.291 160.613L106.005 161.711C105.604 161.475 105.118 161.309 104.547 161.213C103.976 161.116 103.402 161.123 102.826 161.232C102.301 161.332 101.887 161.473 101.583 161.656C101.279 161.838 101.069 162.048 100.953 162.284C100.839 162.528 100.808 162.784 100.858 163.05C100.917 163.36 101.068 163.59 101.31 163.74C101.544 163.892 101.835 163.992 102.183 164.042C102.525 164.102 102.897 164.138 103.3 164.15C103.704 164.163 104.114 164.187 104.531 164.224C104.941 164.271 105.327 164.353 105.688 164.472C106.041 164.592 106.345 164.784 106.6 165.047C106.856 165.319 107.031 165.696 107.122 166.178C107.211 166.642 107.171 167.091 107.004 167.524C106.83 167.967 106.511 168.353 106.047 168.682C105.577 169.021 104.946 169.266 104.155 169.416C103.63 169.516 103.096 169.546 102.554 169.507C102.012 169.467 101.527 169.354 101.099 169.168L101.329 168.055C101.765 168.24 102.209 168.347 102.66 168.377C103.113 168.415 103.542 168.396 103.946 168.319C104.454 168.223 104.859 168.079 105.161 167.888C105.463 167.697 105.672 167.479 105.785 167.234C105.891 166.991 105.918 166.737 105.867 166.47C105.807 166.152 105.66 165.917 105.426 165.765C105.183 165.615 104.892 165.514 104.553 165.463C104.205 165.413 103.828 165.378 103.423 165.357C103.019 165.345 102.614 165.319 102.205 165.281C101.788 165.245 101.403 165.166 101.051 165.046C100.689 164.928 100.381 164.737 100.126 164.473C99.8711 164.21 99.6985 163.841 99.6086 163.368C99.5219 162.912 99.5656 162.463 99.7399 162.02C99.9157 161.585 100.243 161.197 100.722 160.857C101.194 160.526 101.826 160.286 102.617 160.135Z" fill="#012C9D" fill-opacity="0.85"/>
<path d="M118.031 155.407L117.201 165.466L115.977 165.904L108.951 158.649L110.25 158.185L116.595 164.902L116.101 165.078L116.757 155.862L118.031 155.407ZM117.134 158.168L117.153 159.277L112.28 161.017L111.568 160.156L117.134 158.168Z" fill="#012C9D" fill-opacity="0.85"/>
<path d="M122.646 153.078L126.789 161.286L125.616 161.878L121.473 153.67L122.646 153.078Z" fill="#012C9D" fill-opacity="0.85"/>
<path d="M132.552 146.626L137.68 154.258L134.703 156.258C134.035 156.707 133.393 156.985 132.779 157.092C132.165 157.199 131.597 157.138 131.074 156.909C130.551 156.68 130.103 156.289 129.732 155.737C129.361 155.185 129.168 154.623 129.154 154.052C129.145 153.489 129.303 152.939 129.629 152.404C129.96 151.876 130.46 151.387 131.128 150.938L133.505 149.341L133.359 150.183L131.462 147.359L132.552 146.626ZM133.286 150.074L134.143 150.289L131.798 151.864C131.101 152.333 130.674 152.836 130.518 153.373C130.355 153.916 130.456 154.459 130.823 155.004C131.189 155.55 131.654 155.849 132.217 155.903C132.774 155.962 133.401 155.756 134.099 155.288L136.443 153.713L136.318 154.587L133.286 150.074Z" fill="#012C9D" fill-opacity="0.85"/>
<path d="M142.563 137.602L145.781 147.168L144.83 148.054L135.507 144.171L136.516 143.232L145.001 146.889L144.617 147.247L141.573 138.523L142.563 137.602ZM142.832 140.492L143.288 141.503L139.501 145.03L138.506 144.52L142.832 140.492Z" fill="#012C9D" fill-opacity="0.85"/>
<path d="M149.056 129.181L156.336 134.798L154.145 137.637C153.653 138.275 153.133 138.741 152.584 139.037C152.035 139.332 151.477 139.454 150.908 139.403C150.34 139.351 149.792 139.122 149.265 138.716C148.738 138.309 148.378 137.837 148.184 137.301C147.996 136.769 147.976 136.2 148.123 135.595C148.269 134.989 148.589 134.367 149.081 133.729L150.83 131.462L150.947 132.299L148.254 130.221L149.056 129.181ZM145.301 134.048L149.371 134.235L148.512 135.348L144.427 135.182L145.301 134.048ZM150.843 132.219L151.714 132.144L149.989 134.38C149.475 135.046 149.23 135.658 149.252 136.217C149.276 136.788 149.547 137.275 150.067 137.676C150.587 138.077 151.123 138.214 151.675 138.087C152.221 137.966 152.751 137.573 153.265 136.908L154.99 134.672L155.149 135.541L150.843 132.219Z" fill="#012C9D" fill-opacity="0.85"/>
<path d="M158.674 122.973L156.398 127.118L155.419 126.581L157.696 122.436L158.674 122.973ZM155.037 121.111L152.457 125.808L151.455 125.258L154.667 119.409L162.727 123.835L159.603 129.523L158.601 128.973L161.093 124.436L155.037 121.111Z" fill="#012C9D" fill-opacity="0.85"/>
<path d="M157.784 111.654L165.325 114.477L166.43 111.525L167.5 111.926L164.834 119.048L163.763 118.647L164.869 115.695L157.328 112.872L157.784 111.654Z" fill="#012C9D" fill-opacity="0.85"/>
<path d="M166.719 94.8703L166.098 99.5579L164.991 99.4112L165.612 94.7236L166.719 94.8703ZM162.654 94.4508L161.95 99.7634L160.817 99.6133L161.694 92.9985L170.809 94.2066L169.956 100.639L168.823 100.489L169.503 95.3586L162.654 94.4508Z" fill="#012C9D" fill-opacity="0.85"/>
<path d="M160.713 73.562L170.288 76.756L170.422 78.0494L161.707 83.1518L161.565 81.7799L169.595 77.2107L169.65 77.7333L160.853 74.9077L160.713 73.562ZM163.182 75.0889L164.264 75.3333L164.797 80.481L163.791 80.9682L163.182 75.0889Z" fill="#012C9D" fill-opacity="0.85"/>
<path d="M159.54 68.5311L168.495 66.4438L168.793 67.7231L159.839 69.8103L159.54 68.5311Z" fill="#012C9D" fill-opacity="0.85"/>
<path d="M155.613 57.3792L164.241 54.2021L165.481 57.5671C165.759 58.3231 165.877 59.0121 165.836 59.6339C165.794 60.2558 165.6 60.7938 165.254 61.2478C164.908 61.7018 164.423 62.0438 163.798 62.2737C163.174 62.5037 162.583 62.5581 162.025 62.4369C161.475 62.3127 160.979 62.0289 160.535 61.5855C160.1 61.1392 159.744 60.538 159.465 59.782L158.476 57.0949L159.26 57.4363L156.067 58.6118L155.613 57.3792ZM159.136 57.4817L159.548 56.7001L160.524 59.3501C160.815 60.139 161.202 60.6727 161.688 60.9513C162.176 61.2381 162.728 61.2681 163.344 61.0411C163.961 60.8142 164.362 60.4333 164.547 59.8984C164.736 59.3717 164.685 58.7139 164.395 57.925L163.419 55.2749L164.239 55.6027L159.136 57.4817Z" fill="#012C9D" fill-opacity="0.85"/>
<path d="M149.19 45.5288L159.245 44.645L159.883 45.7781L153.921 53.9293L153.244 52.7276L158.791 45.3379L159.049 45.7957L149.854 46.7076L149.19 45.5288ZM152.063 45.9459L153.153 45.7393L155.692 50.2485L154.964 51.0961L152.063 45.9459Z" fill="#012C9D" fill-opacity="0.85"/>
<path d="M142.525 37.2442L149.689 31.4819L151.937 34.2762C152.442 34.904 152.774 35.5192 152.932 36.1219C153.091 36.7246 153.079 37.2963 152.896 37.8369C152.713 38.3776 152.362 38.8565 151.843 39.2736C151.324 39.6906 150.781 39.9307 150.214 39.9937C149.653 40.0512 149.096 39.9378 148.541 39.6534C147.987 39.369 147.457 38.9129 146.952 38.2851L145.158 36.0538L145.999 36.1357L143.348 38.2678L142.525 37.2442ZM146.377 42.0344L147.512 38.1216L148.392 39.2168L147.274 43.1501L146.377 42.0344ZM145.896 36.218L146.028 35.3541L147.797 37.5547C148.324 38.2098 148.862 38.592 149.411 38.7014C149.972 38.8121 150.508 38.6616 151.02 38.25C151.532 37.8384 151.79 37.3495 151.796 36.7833C151.806 36.224 151.548 35.6168 151.022 34.9617L149.252 32.7611L150.134 32.8101L145.896 36.218Z" fill="#012C9D" fill-opacity="0.85"/>
<path d="M138.752 26.439L142.246 29.6254L141.493 30.4503L137.999 27.2639L138.752 26.439ZM136.086 29.5369L140.046 33.1482L139.276 33.9925L134.346 29.4961L140.542 22.7026L145.336 27.0751L144.566 27.9194L140.742 24.4321L136.086 29.5369Z" fill="#012C9D" fill-opacity="0.85"/>
<path d="M127.543 24.6415L132.064 17.9788L129.456 16.2088L130.097 15.2632L136.391 19.5334L135.749 20.479L133.14 18.709L128.619 25.3717L127.543 24.6415Z" fill="#012C9D" fill-opacity="0.85"/>
<path d="M117.738 19.6024C117.104 19.3047 116.564 18.9206 116.117 18.4498C115.679 17.9828 115.35 17.466 115.133 16.8995C114.919 16.3251 114.822 15.7281 114.841 15.1087C114.861 14.4893 115.014 13.8744 115.301 13.264C115.587 12.6536 115.963 12.1429 116.426 11.7318C116.89 11.3207 117.409 11.0179 117.984 10.8234C118.563 10.621 119.172 10.5393 119.812 10.5783C120.451 10.6172 121.092 10.7874 121.734 11.0888C122.368 11.3864 122.901 11.7669 123.331 12.2302C123.774 12.6892 124.102 13.206 124.316 13.7805C124.541 14.3507 124.64 14.9437 124.613 15.5594C124.593 16.1788 124.438 16.7977 124.148 17.416C123.857 18.0343 123.48 18.549 123.017 18.9601C122.561 19.3749 122.039 19.6816 121.453 19.8803C120.878 20.0748 120.271 20.1525 119.631 20.1136C119.003 20.0704 118.372 19.9 117.738 19.6024ZM118.235 18.5441C118.695 18.7599 119.156 18.8797 119.619 18.9034C120.09 18.9309 120.535 18.8689 120.954 18.7175C121.385 18.5619 121.771 18.327 122.112 18.013C122.46 17.7027 122.743 17.3177 122.958 16.8579C123.174 16.3982 123.29 15.935 123.306 15.4684C123.33 15.0056 123.262 14.5627 123.102 14.1396C122.955 13.7124 122.72 13.3265 122.398 12.982C122.084 12.6411 121.697 12.3628 121.237 12.147C120.77 11.9275 120.3 11.804 119.83 11.7765C119.367 11.7528 118.92 11.8187 118.489 11.9744C118.062 12.1221 117.674 12.3511 117.325 12.6614C116.984 12.9754 116.706 13.3623 116.49 13.822C116.274 14.2818 116.154 14.7431 116.131 15.206C116.115 15.6725 116.185 16.1213 116.34 16.5522C116.5 16.9752 116.736 17.3572 117.05 17.698C117.372 18.0426 117.767 18.3246 118.235 18.5441Z" fill="#012C9D" fill-opacity="0.85"/>
<path d="M106.411 15.4653C105.737 15.2745 105.121 14.991 104.563 14.6147C104.007 14.23 103.599 13.8232 103.338 13.3945L104.085 12.541C104.339 12.9313 104.699 13.2972 105.167 13.6389C105.634 13.9805 106.15 14.2312 106.715 14.391C107.229 14.5364 107.663 14.5955 108.016 14.5682C108.37 14.5408 108.651 14.4475 108.86 14.2882C109.071 14.1205 109.214 13.906 109.288 13.6448C109.373 13.3415 109.341 13.0685 109.192 12.8259C109.05 12.5857 108.835 12.3655 108.546 12.1654C108.268 11.9592 107.951 11.7603 107.595 11.5688C107.24 11.3772 106.884 11.1718 106.528 10.9526C106.182 10.7273 105.874 10.4809 105.604 10.2133C105.342 9.94817 105.156 9.64072 105.046 9.29097C104.938 8.9328 104.951 8.51779 105.084 8.04595C105.213 7.59096 105.449 7.20727 105.792 6.89488C106.146 6.57644 106.604 6.37383 107.165 6.28702C107.738 6.19417 108.411 6.25744 109.187 6.47682C109.701 6.62228 110.191 6.83395 110.659 7.11184C111.126 7.38972 111.509 7.70751 111.809 8.0652L111.105 8.95826C110.798 8.59818 110.449 8.30376 110.059 8.075C109.671 7.83781 109.279 7.66318 108.883 7.5511C108.386 7.41041 107.959 7.35795 107.603 7.39373C107.247 7.4295 106.963 7.53125 106.752 7.69897C106.549 7.86907 106.411 8.08473 106.337 8.34593C106.249 8.65768 106.275 8.93366 106.417 9.17387C106.566 9.41647 106.782 9.63665 107.062 9.83441C107.352 10.0346 107.673 10.2346 108.026 10.4346C108.381 10.6262 108.733 10.8304 109.081 11.0472C109.437 11.2664 109.747 11.5086 110.008 11.7738C110.278 12.0414 110.469 12.35 110.579 12.6998C110.689 13.0495 110.679 13.4561 110.548 13.9195C110.421 14.3661 110.181 14.7486 109.827 15.067C109.475 15.377 109.009 15.5772 108.428 15.6677C107.859 15.7521 107.186 15.6846 106.411 15.4653Z" fill="#012C9D" fill-opacity="0.85"/>
<path d="M95.9921 13.5028C95.2976 13.4112 94.6471 13.2196 94.0408 12.9277C93.4357 12.6272 92.9731 12.2836 92.6531 11.897L93.2687 10.9447C93.576 11.2943 93.9855 11.6044 94.4975 11.875C95.0094 12.1456 95.5563 12.3192 96.1379 12.3958C96.6675 12.4656 97.1053 12.4615 97.4512 12.3834C97.7971 12.3053 98.0619 12.1724 98.2456 11.9846C98.4305 11.7882 98.5407 11.5554 98.5761 11.2862C98.6173 10.9737 98.5463 10.7082 98.3631 10.4898C98.1886 10.2725 97.9438 10.0856 97.6288 9.92931C97.3236 9.76545 96.9813 9.61437 96.6021 9.47608C96.2229 9.33779 95.841 9.18591 95.4565 9.02043C95.0819 8.84742 94.7416 8.64802 94.4357 8.42224C94.1385 8.1976 93.9101 7.9202 93.7504 7.59004C93.5919 7.25119 93.5447 6.83868 93.6088 6.35251C93.6705 5.8837 93.8487 5.46997 94.1433 5.11132C94.4476 4.74514 94.8714 4.47858 95.4145 4.31167C95.9674 4.13721 96.6432 4.10259 97.4419 4.20783C97.9715 4.2776 98.4876 4.41625 98.9902 4.62379C99.4928 4.83133 99.9179 5.09048 100.266 5.40126L99.6986 6.38644C99.3423 6.07452 98.9545 5.83353 98.5353 5.66348C98.1172 5.48474 97.7041 5.3685 97.2961 5.31474C96.7839 5.24725 96.3543 5.25689 96.0072 5.34365C95.6601 5.43041 95.3942 5.57201 95.2093 5.76847C95.0331 5.96606 94.9273 6.19943 94.8918 6.46856C94.8495 6.78978 94.9156 7.05904 95.0901 7.27635C95.2733 7.49479 95.5181 7.68161 95.8244 7.83679C96.1395 7.99312 96.486 8.14477 96.8641 8.29174C97.2434 8.43003 97.6209 8.58134 97.9967 8.74567C98.3812 8.91115 98.722 9.1062 99.0192 9.33084C99.3251 9.55662 99.5579 9.83459 99.7175 10.1648C99.8772 10.4949 99.9255 10.8988 99.8626 11.3762C99.802 11.8364 99.6195 12.2495 99.3151 12.6157C99.0119 12.9732 98.5794 13.2386 98.0178 13.4119C97.4661 13.5777 96.7908 13.608 95.9921 13.5028Z" fill="#012C9D" fill-opacity="0.85"/>
<path d="M79.8684 13.0948L83.8596 3.82411L85.1598 3.7998L89.5078 12.9146L88.1289 12.9404L84.2542 4.55242L84.7795 4.5426L81.2211 13.0695L79.8684 13.0948ZM81.5984 10.7635L81.9333 9.70622L87.1076 9.6095L87.5081 10.653L81.5984 10.7635Z" fill="#012C9D" fill-opacity="0.85"/>
<path d="M66.5175 15.7939L64.6972 6.78136L65.753 6.56813L71.1713 12.5625L70.6048 12.6769L73.2205 5.05991L74.2762 4.84668L76.1094 13.8566L74.8734 14.1062L73.4329 7.04045L73.729 6.98064L71.3821 13.6724L70.7898 13.792L66.004 8.54087L66.3259 8.47586L67.7535 15.5443L66.5175 15.7939Z" fill="#012C9D" fill-opacity="0.85"/>
</svg>
