<svg width="64" height="64" viewBox="0 0 64 64" fill="none" xmlns="http://www.w3.org/2000/svg">
<path d="M57.7756 22.3422C48.7971 10.8299 49.1801 11.1183 48.7007 11.0713L34.6461 9.17817C31.1032 8.70092 28.6967 9.32121 27.4679 9.43234C27.0555 9.48786 26.7662 9.86725 26.8217 10.2797C26.8772 10.6921 27.2571 10.9819 27.669 10.9259C28.9152 10.8116 31.1503 10.2282 34.4449 10.6717L44.0962 11.9717C43.3739 12.1189 32.7233 14.2892 32.0005 14.4365L19.905 11.9717L24.0859 11.4085C24.4983 11.353 24.7875 10.9736 24.7321 10.5612C24.6766 10.1487 24.2964 9.85935 23.8848 9.91496L15.3012 11.0711C15.3 11.0712 15.2988 11.0714 15.2976 11.0716L15.2862 11.0731C15.2747 11.0747 15.2634 11.0772 15.252 11.0794C15.2446 11.0808 15.237 11.0818 15.2297 11.0834C15.2235 11.0847 15.2173 11.0861 15.2112 11.0875C15.2026 11.0896 15.1941 11.0921 15.1856 11.0945C15.1724 11.0981 15.1593 11.1017 15.1463 11.106C15.1409 11.1078 15.1359 11.1101 15.1305 11.112C15.1282 11.1128 15.1258 11.1137 15.1236 11.1146C15.1161 11.1175 15.1083 11.1201 15.1009 11.123C15.0873 11.1286 15.0742 11.1348 15.061 11.1412C15.0552 11.1439 15.0496 11.1464 15.0439 11.1493C15.0375 11.1525 15.0313 11.1556 15.0251 11.159C15.0192 11.1622 15.0135 11.1659 15.0075 11.1694C14.6803 11.3601 14.8401 11.3736 6.22576 22.3421C6.04665 22.5719 6.01586 22.8842 6.14694 23.1444C6.45025 23.7462 5.64356 22.5584 22.2727 44.6315C22.5234 44.9638 22.9959 45.0298 23.3281 44.7792C23.6603 44.5286 23.7264 44.0561 23.4758 43.7238L8.86973 24.3648L20.672 28.0823C20.9551 28.8288 29.6 51.6303 29.7603 52.0533L25.6014 46.5412C25.3508 46.2089 24.8784 46.1429 24.546 46.3935C24.2137 46.6441 24.1478 47.1166 24.3983 47.4489C28.7531 53.2196 29.2018 53.8176 29.2328 53.8525C29.783 54.4726 30.5439 54.8648 31.2717 54.9876C31.3794 55.0059 32.6419 55.0055 32.7475 54.9849C33.6651 54.8067 34.4402 54.2883 34.8061 53.8064L49.5151 34.3109C49.7656 33.9786 49.6995 33.5061 49.3674 33.2555C49.0349 33.0051 48.5627 33.0711 48.312 33.4032L34.2407 52.0537C34.6901 50.8682 42.9988 28.9536 43.3292 28.0824L55.1315 24.3649L50.4302 30.5959C50.1796 30.9282 50.2456 31.4007 50.5779 31.6513C50.9102 31.902 51.3826 31.8359 51.6333 31.5036C57.9448 23.1303 57.6047 23.6379 57.8538 23.1456C57.9855 22.8852 57.955 22.5723 57.7756 22.3422ZM32.0006 16.3487L41.0916 26.7198H22.9096L32.0006 16.3487ZM8.00438 22.5122L15.153 13.345L19.9995 26.2907L8.00438 22.5122ZM16.5695 12.8299C18.0616 13.1339 28.76 15.3142 30.5786 15.6848L21.5109 26.0292L16.5695 12.8299ZM32.0839 53.4918H31.9175L22.3386 28.2267H41.6628L32.0839 53.4918ZM42.4903 26.0291L33.4226 15.6848C34.6289 15.4389 45.5768 13.208 47.4316 12.8299L42.4903 26.0291ZM44.0016 26.2905L48.8482 13.3448L55.9969 22.5121L44.0016 26.2905Z" fill="#315AC4"/>
</svg>
