<svg width="64" height="64" viewBox="0 0 64 64" fill="none" xmlns="http://www.w3.org/2000/svg">
<g clip-path="url(#clip0_4002_77)">
<path d="M63.8105 31.4342C55.9468 21.0086 44.3524 15.0294 32 15.0294C19.6476 15.0294 8.05312 21.0087 0.189375 31.4342C-0.063125 31.7691 -0.063125 32.2306 0.189375 32.5656C8.05312 42.9912 19.6476 48.9706 32 48.9706C44.3524 48.9706 55.9468 42.9914 63.8105 32.5657C64.0631 32.2307 64.0631 31.7691 63.8105 31.4342ZM32 47.092C20.4671 47.092 9.617 41.601 2.12325 32C9.617 22.399 20.4671 16.908 32 16.908C43.5328 16.908 54.3829 22.399 61.8768 32C54.3829 41.601 43.5328 47.092 32 47.092Z" fill="#315AC4"/>
<path d="M43.1695 22.0375C42.8241 21.6505 42.2302 21.6166 41.8431 21.9621C41.4561 22.3076 41.4223 22.9015 41.7677 23.2885C43.9087 25.6873 45.0879 28.7813 45.0879 32C45.0879 39.2168 39.2166 45.088 31.9998 45.088C24.783 45.088 18.9117 39.2166 18.9117 32C18.9117 24.7834 24.783 18.9119 31.9998 18.9119C34.1128 18.9119 36.1293 19.3996 37.993 20.3614C38.4537 20.599 39.0205 20.4184 39.2585 19.9574C39.4963 19.4964 39.3155 18.9298 38.8545 18.6919C36.7518 17.6068 34.3816 17.0333 32 17.0333C23.7472 17.0333 17.0332 23.7473 17.0332 32C17.0332 40.2528 23.7471 46.9668 31.9998 46.9668C40.2526 46.9668 46.9666 40.2526 46.9666 32C46.9666 28.319 45.618 24.781 43.1695 22.0375Z" fill="#315AC4"/>
<path d="M31.9999 26.0509C28.7197 26.0509 26.0508 28.7197 26.0508 32C26.0508 35.2803 28.7197 37.9492 31.9999 37.9492C35.2802 37.9492 37.949 35.2803 37.949 32C37.949 28.7198 35.2802 26.0509 31.9999 26.0509ZM31.9999 36.0704C29.7555 36.0704 27.9294 34.2444 27.9294 31.9999C27.9294 29.7554 29.7555 27.9294 31.9999 27.9294C34.2444 27.9294 36.0704 29.7554 36.0704 31.9999C36.0704 34.2444 34.2444 36.0704 31.9999 36.0704Z" fill="#315AC4"/>
</g>
<defs>
<clipPath id="clip0_4002_77">
<rect width="64" height="64" fill="white"/>
</clipPath>
</defs>
</svg>
